<?xml version="1.0" encoding="UTF-8" standalone="no"?>
<!-- Created with Inkscape (http://www.inkscape.org/) -->

<svg
   width="181.85881mm"
   height="166.09631mm"
   viewBox="0 0 181.85881 166.09631"
   version="1.1"
   id="svg1"
   inkscape:version="1.4.3 (0d15f75, 2025-12-25)"
   sodipodi:docname="AverageShape.svg"
   xmlns:inkscape="http://www.inkscape.org/namespaces/inkscape"
   xmlns:sodipodi="http://sodipodi.sourceforge.net/DTD/sodipodi-0.dtd"
   xmlns="http://www.w3.org/2000/svg"
   xmlns:svg="http://www.w3.org/2000/svg"
   xmlns:ns2="http://www.iki.fi/pav/software/textext/">
  <sodipodi:namedview
     id="namedview1"
     pagecolor="#ffffff"
     bordercolor="#000000"
     borderopacity="0.25"
     inkscape:showpageshadow="2"
     inkscape:pageopacity="0.0"
     inkscape:pagecheckerboard="0"
     inkscape:deskcolor="#d1d1d1"
     inkscape:document-units="mm"
     inkscape:zoom="1.1544681"
     inkscape:cx="161.11316"
     inkscape:cy="164.14486"
     inkscape:window-width="3008"
     inkscape:window-height="1634"
     inkscape:window-x="0"
     inkscape:window-y="30"
     inkscape:window-maximized="1"
     inkscape:current-layer="layer1" />
  <defs
     id="defs1">
    <marker
       style="overflow:visible"
       id="marker117"
       refX="0"
       refY="0"
       orient="auto-start-reverse"
       inkscape:stockid="Dart arrow"
       markerWidth="1"
       markerHeight="1"
       viewBox="0 0 1 1"
       inkscape:isstock="true"
       inkscape:collect="always"
       preserveAspectRatio="xMidYMid">
      <path
         style="fill:context-stroke;fill-rule:evenodd;stroke:none"
         d="M 0,0 5,-5 -12.5,0 5,5 Z"
         transform="scale(-0.5)"
         id="path117" />
    </marker>
    <marker
       style="overflow:visible"
       id="marker114"
       refX="0"
       refY="0"
       orient="auto-start-reverse"
       inkscape:stockid="Dart arrow"
       markerWidth="1"
       markerHeight="1"
       viewBox="0 0 1 1"
       inkscape:isstock="true"
       inkscape:collect="always"
       preserveAspectRatio="xMidYMid">
      <path
         style="fill:context-stroke;fill-rule:evenodd;stroke:none"
         d="M 0,0 5,-5 -12.5,0 5,5 Z"
         transform="scale(-0.5)"
         id="path114" />
    </marker>
    <marker
       style="overflow:visible"
       id="DartArrow"
       refX="0"
       refY="0"
       orient="auto-start-reverse"
       inkscape:stockid="Dart arrow"
       markerWidth="1"
       markerHeight="1"
       viewBox="0 0 1 1"
       inkscape:isstock="true"
       inkscape:collect="always"
       preserveAspectRatio="xMidYMid">
      <path
         style="fill:context-stroke;fill-rule:evenodd;stroke:none"
         d="M 0,0 5,-5 -12.5,0 5,5 Z"
         transform="scale(-0.5)"
         id="path6" />
    </marker>
  </defs>
  <g
     inkscape:label="Layer 1"
     inkscape:groupmode="layer"
     id="layer1"
     transform="translate(-63.882269,-7.5101792)">
    <rect
       style="fill:#3a46f5;fill-opacity:0.1;stroke:none;stroke-width:0.2;stroke-dasharray:2, 0.499999;stroke-dashoffset:0;stroke-opacity:1"
       id="rect181"
       width="10.873215"
       height="22.363783"
       x="50.066742"
       y="-112.15875"
       ry="4.0816154"
       transform="rotate(90)" />
    <rect
       style="fill:#3a46f5;fill-opacity:0.1;stroke:none;stroke-width:0.2;stroke-dasharray:2, 0.499999;stroke-dashoffset:0;stroke-opacity:1"
       id="rect180"
       width="10.873215"
       height="22.363783"
       x="109.09359"
       y="-139.96513"
       ry="4.0816154"
       transform="rotate(90)" />
    <rect
       style="fill:#3a46f5;fill-opacity:0.1;stroke:none;stroke-width:0.2;stroke-dasharray:2, 0.499999;stroke-dashoffset:0;stroke-opacity:1"
       id="rect176"
       width="10.873215"
       height="22.363783"
       x="141.85753"
       y="73.489693"
       ry="4.0816154" />
    <rect
       style="fill:#3a46f5;fill-opacity:0.1;stroke:none;stroke-width:0.2;stroke-dasharray:2, 0.499999;stroke-dashoffset:0;stroke-opacity:1"
       id="rect182"
       width="10.873215"
       height="22.363783"
       x="66.510757"
       y="-174.8105"
       ry="4.0816154"
       transform="rotate(90)" />
    <rect
       style="fill:#01426a;fill-opacity:0.1;stroke:none;stroke-width:0.2;stroke-dasharray:2, 0.499999;stroke-dashoffset:0;stroke-opacity:1"
       id="rect178"
       width="10.873215"
       height="22.363783"
       x="111.15152"
       y="-174.8105"
       ry="4.0816154"
       transform="rotate(90)" />
    <rect
       style="fill:#3a46f5;fill-opacity:0.1;stroke:none;stroke-width:0.2;stroke-dasharray:2, 0.499999;stroke-dashoffset:0;stroke-opacity:1"
       id="rect177"
       width="10.873215"
       height="22.363783"
       x="186.2984"
       y="93.818108"
       ry="4.0816154" />
    <rect
       style="fill:#3a46f5;fill-opacity:0.1;stroke:none;stroke-width:0.2;stroke-dasharray:2, 0.499999;stroke-dashoffset:0;stroke-opacity:1"
       id="rect179"
       width="10.873215"
       height="22.363783"
       x="56.893852"
       y="-217.12959"
       ry="4.0816154"
       transform="rotate(90)" />
    <path
       style="fill:none;stroke:#3a46f5;stroke-width:0.5;stroke-dasharray:none;stroke-dashoffset:3.40157;stroke-opacity:1;fill-opacity:1"
       d="m 90.344198,76.50098 c -10.840169,14.278685 -27.711763,21.408295 -26.105353,35.45695 1.672899,14.63012 32.061673,19.99412 40.117035,7.69922 21.47906,-32.783421 -1.85993,-59.162452 -14.011682,-43.15617 z"
       id="path2"
       sodipodi:nodetypes="ssss"
       inkscape:label="Omega_1" />
    <path
       style="fill:none;stroke:#3a46f5;stroke-width:0.5;stroke-dasharray:none;stroke-dashoffset:3.40157;stroke-opacity:1;fill-opacity:1"
       d="m 215.71058,80.886839 c -1.72267,19.749191 -17.78382,17.96391 -16.17741,32.012561 1.6729,14.63012 27.4035,17.83534 40.11702,7.69922 C 260.9082,103.65025 217.4569,60.866444 215.71058,80.886839 Z"
       id="path3"
       sodipodi:nodetypes="ssss"
       inkscape:label="Omega_n" />
    <path
       style="fill:none;stroke:#3a46f5;stroke-width:0.5;stroke-dasharray:none;stroke-dashoffset:3.40157;stroke-opacity:1;fill-opacity:1"
       d="m 126.01233,130.55646 c -9.21928,18.73614 -17.37859,25.86574 -16.1774,32.01256 2.82417,14.4521 25.51622,14.31431 33.22823,0 8.89873,-16.517 -8.17817,-50.04425 -17.05083,-32.01256 z"
       id="path7"
       sodipodi:nodetypes="ssss"
       inkscape:label="Omega_2" />
    <path
       style="fill:none;stroke:#a92021;stroke-width:0.5;stroke-dasharray:4, 0.5;stroke-dashoffset:0;stroke-opacity:1;fill-opacity:1"
       d="m 164.01032,88.250593 c -9.21928,18.736137 -17.37859,25.865737 -16.1774,32.012557 2.82417,14.4521 25.51622,14.31431 33.22823,0 8.89873,-16.517 -8.17817,-50.044247 -17.05083,-32.012557 z"
       id="path8"
       sodipodi:nodetypes="ssss"
       inkscape:label="Omega_bar" />
    <circle
       style="fill:none;stroke:#3a46f5;stroke-width:0.5;stroke-dasharray:none;stroke-dashoffset:0;stroke-opacity:1;fill-opacity:1"
       id="path9"
       cx="147.46487"
       cy="35.348324"
       r="27.588144"
       inkscape:label="Omega_0" />
    <g
       transform="matrix(0.683109,0,0,0.683109,113.61182,11.379419)"
       ns2:version="1.10.0"
       ns2:texconverter="pdflatex"
       ns2:pdfconverter="inkscape"
       ns2:text="$\\Omega_0$"
       ns2:preamble="/Users/daby/Library/Application Support/org.inkscape.Inkscape/config/inkscape/extensions/textext/default_packages.tex"
       ns2:scale="1.9363711850960938"
       ns2:alignment="middle center"
       ns2:stroke-to-path="0"
       id="g9656"
       ns2:jacobian_sqrt="0.683109"
       inkscape:label="Omega0">
      <defs
         id="id-20b3dc0e-2fe7-4995-8965-8aeb35995a58" />
      <g
         fill="#000000"
         fill-opacity="1"
         id="id-644c73c7-1df2-4383-9843-d153a8a3c7ca"
         transform="translate(-149.15,-127.734)">
        <g
           transform="translate(148.712,134.765)"
           id="g2438">
          <path
             d="M 6.75,-1.609375 H 6.5 c -0.046875,0.25 -0.09375,0.484375 -0.1875,0.71875 -0.046875,0.15625 -0.078125,0.25 -0.65625,0.25 H 4.859375 C 5,-1.203125 5.296875,-1.6875 5.75,-2.34375 c 0.46875,-0.703125 0.875,-1.390625 0.875,-2.1875 0,-1.375 -1.34375,-2.5 -3.03125,-2.5 -1.703125,0 -3.03125,1.140625 -3.03125,2.5 0,0.796875 0.40625,1.484375 0.875,2.1875 0.4375,0.65625 0.75,1.140625 0.890625,1.703125 H 1.53125 C 0.953125,-0.640625 0.921875,-0.734375 0.875,-0.875 0.78125,-1.109375 0.734375,-1.359375 0.6875,-1.609375 h -0.25 L 0.765625,0 h 1.59375 c 0.21875,0 0.25,0 0.25,-0.203125 0,-0.703125 -0.3125,-1.578125 -0.53125,-2.21875 -0.21875,-0.578125 -0.5,-1.359375 -0.5,-2.109375 0,-1.59375 1.109375,-2.28125 2.015625,-2.28125 0.953125,0 2.015625,0.71875 2.015625,2.28125 0,0.75 -0.28125,1.5 -0.5625,2.3125 -0.15625,0.421875 -0.46875,1.328125 -0.46875,2.015625 C 4.578125,0 4.609375,0 4.828125,0 h 1.59375 z m 0,0"
             id="id-0679b794-b283-44ce-aa70-b7c717ccdac0" />
        </g>
      </g>
      <g
         fill="#000000"
         fill-opacity="1"
         id="id-b28678c9-9ea3-4d32-9b21-6188cc3019bb"
         transform="translate(-149.15,-127.734)">
        <g
           transform="translate(155.908,136.259)"
           id="g7145">
          <path
             d="M 3.59375,-2.21875 C 3.59375,-2.984375 3.5,-3.546875 3.1875,-4.03125 2.96875,-4.34375 2.53125,-4.625 1.984375,-4.625 c -1.625,0 -1.625,1.90625 -1.625,2.40625 0,0.5 0,2.359375 1.625,2.359375 1.609375,0 1.609375,-1.859375 1.609375,-2.359375 z M 1.984375,-0.0625 c -0.328125,0 -0.75,-0.1875 -0.890625,-0.75 C 1,-1.21875 1,-1.796875 1,-2.3125 1,-2.828125 1,-3.359375 1.09375,-3.734375 1.25,-4.28125 1.6875,-4.4375 1.984375,-4.4375 c 0.375,0 0.734375,0.234375 0.859375,0.640625 0.109375,0.375 0.125,0.875 0.125,1.484375 0,0.515625 0,1.03125 -0.09375,1.46875 -0.140625,0.640625 -0.609375,0.78125 -0.890625,0.78125 z m 0,0"
             id="id-8b644adf-5926-46d3-a796-1a3439cd3fbc" />
        </g>
      </g>
    </g>
    <g
       transform="matrix(0.683109,0,0,0.683109,175.86969,131.38284)"
       ns2:version="1.10.0"
       ns2:texconverter="pdflatex"
       ns2:pdfconverter="inkscape"
       ns2:text="$\\overline{\\Omega}$"
       ns2:preamble="/Users/daby/Library/Application Support/org.inkscape.Inkscape/config/inkscape/extensions/textext/default_packages.tex"
       ns2:scale="1.9363711850960938"
       ns2:alignment="middle center"
       ns2:stroke-to-path="0"
       id="g41"
       ns2:jacobian_sqrt="0.683109"
       inkscape:label="Omegabar"
       style="fill:#a92021;fill-opacity:1">
      <defs
         id="id-3477f9b1-ecc8-428d-b5d1-8c55a482cc30" />
      <path
         fill="none"
         stroke-width="0.398"
         stroke-linecap="butt"
         stroke-linejoin="miter"
         stroke="#000000"
         stroke-opacity="1"
         stroke-miterlimit="10"
         d="M 0,0.199 H 7.1953125"
         id="id-431814ca-672f-4341-b744-3506bcfc3b60"
         style="fill:#a92021;fill-opacity:1" />
      <g
         fill="#000000"
         fill-opacity="1"
         id="id-cfb0ad28-8022-4ff4-9adb-2a05850dafa5"
         transform="translate(-148.711,-126.364)"
         style="fill:#a92021;fill-opacity:1">
        <g
           transform="translate(148.712,134.765)"
           id="g8620"
           style="fill:#a92021;fill-opacity:1">
          <path
             d="M 6.75,-1.609375 H 6.5 c -0.046875,0.25 -0.09375,0.484375 -0.1875,0.71875 -0.046875,0.15625 -0.078125,0.25 -0.65625,0.25 H 4.859375 C 5,-1.203125 5.296875,-1.6875 5.75,-2.34375 c 0.46875,-0.703125 0.875,-1.390625 0.875,-2.1875 0,-1.375 -1.34375,-2.5 -3.03125,-2.5 -1.703125,0 -3.03125,1.140625 -3.03125,2.5 0,0.796875 0.40625,1.484375 0.875,2.1875 0.4375,0.65625 0.75,1.140625 0.890625,1.703125 H 1.53125 C 0.953125,-0.640625 0.921875,-0.734375 0.875,-0.875 0.78125,-1.109375 0.734375,-1.359375 0.6875,-1.609375 h -0.25 L 0.765625,0 h 1.59375 c 0.21875,0 0.25,0 0.25,-0.203125 0,-0.703125 -0.3125,-1.578125 -0.53125,-2.21875 -0.21875,-0.578125 -0.5,-1.359375 -0.5,-2.109375 0,-1.59375 1.109375,-2.28125 2.015625,-2.28125 0.953125,0 2.015625,0.71875 2.015625,2.28125 0,0.75 -0.28125,1.5 -0.5625,2.3125 -0.15625,0.421875 -0.46875,1.328125 -0.46875,2.015625 C 4.578125,0 4.609375,0 4.828125,0 h 1.59375 z m 0,0"
             id="id-6ec19cbb-4520-4541-8ae4-65303750637c"
             style="fill:#a92021;fill-opacity:1" />
        </g>
      </g>
    </g>
    <g
       transform="matrix(0.683109,0,0,0.683109,98.821139,147.5726)"
       ns2:version="1.10.0"
       ns2:texconverter="pdflatex"
       ns2:pdfconverter="inkscape"
       ns2:text="$\\Omega_2$"
       ns2:preamble="/Users/daby/Library/Application Support/org.inkscape.Inkscape/config/inkscape/extensions/textext/default_packages.tex"
       ns2:scale="1.9363711850960938"
       ns2:alignment="middle center"
       ns2:stroke-to-path="0"
       id="g25"
       ns2:jacobian_sqrt="0.683109"
       inkscape:label="Omega2"
       style="fill:#005776;fill-opacity:1">
      <defs
         id="id-6d670d67-fe63-4caf-a842-9d45a2d4cf0a" />
      <g
         fill="#000000"
         fill-opacity="1"
         id="id-8e86a0b6-409d-44f1-b254-a236b0a15198"
         transform="translate(-149.15,-127.734)"
         style="fill:#005776;fill-opacity:1">
        <g
           transform="translate(148.712,134.765)"
           id="g9657"
           style="fill:#005776;fill-opacity:1">
          <path
             d="M 6.75,-1.609375 H 6.5 c -0.046875,0.25 -0.09375,0.484375 -0.1875,0.71875 -0.046875,0.15625 -0.078125,0.25 -0.65625,0.25 H 4.859375 C 5,-1.203125 5.296875,-1.6875 5.75,-2.34375 c 0.46875,-0.703125 0.875,-1.390625 0.875,-2.1875 0,-1.375 -1.34375,-2.5 -3.03125,-2.5 -1.703125,0 -3.03125,1.140625 -3.03125,2.5 0,0.796875 0.40625,1.484375 0.875,2.1875 0.4375,0.65625 0.75,1.140625 0.890625,1.703125 H 1.53125 C 0.953125,-0.640625 0.921875,-0.734375 0.875,-0.875 0.78125,-1.109375 0.734375,-1.359375 0.6875,-1.609375 h -0.25 L 0.765625,0 h 1.59375 c 0.21875,0 0.25,0 0.25,-0.203125 0,-0.703125 -0.3125,-1.578125 -0.53125,-2.21875 -0.21875,-0.578125 -0.5,-1.359375 -0.5,-2.109375 0,-1.59375 1.109375,-2.28125 2.015625,-2.28125 0.953125,0 2.015625,0.71875 2.015625,2.28125 0,0.75 -0.28125,1.5 -0.5625,2.3125 -0.15625,0.421875 -0.46875,1.328125 -0.46875,2.015625 C 4.578125,0 4.609375,0 4.828125,0 h 1.59375 z m 0,0"
             id="id-d7d8b04f-abd3-4319-9dc7-dccdc7b5168f"
             style="fill:#3a46f5;fill-opacity:1" />
        </g>
      </g>
      <g
         fill="#000000"
         fill-opacity="1"
         id="id-a9960e75-40b5-43f2-8ce5-1dd352b16fc0"
         transform="translate(-149.15,-127.734)"
         style="fill:#005776;fill-opacity:1">
        <g
           transform="translate(155.908,136.259)"
           id="g6269"
           style="fill:#005776;fill-opacity:1">
          <path
             d="M 3.515625,-1.265625 H 3.28125 c -0.015625,0.15625 -0.09375,0.5625 -0.1875,0.625 C 3.046875,-0.59375 2.515625,-0.59375 2.40625,-0.59375 H 1.125 c 0.734375,-0.640625 0.984375,-0.84375 1.390625,-1.171875 0.515625,-0.40625 1,-0.84375 1,-1.5 0,-0.84375 -0.734375,-1.359375 -1.625,-1.359375 -0.859375,0 -1.453125,0.609375 -1.453125,1.25 0,0.34375 0.296875,0.390625 0.375,0.390625 0.15625,0 0.359375,-0.125 0.359375,-0.375 0,-0.125 -0.046875,-0.375 -0.40625,-0.375 C 0.984375,-4.21875 1.453125,-4.375 1.78125,-4.375 c 0.703125,0 1.0625,0.546875 1.0625,1.109375 0,0.609375 -0.4375,1.078125 -0.65625,1.328125 L 0.515625,-0.265625 C 0.4375,-0.203125 0.4375,-0.1875 0.4375,0 h 2.875 z m 0,0"
             id="id-77d2f4c2-ccca-4117-bc56-5a69fe37f84d"
             style="fill:#3a46f5;fill-opacity:1" />
        </g>
      </g>
    </g>
    <g
       transform="matrix(0.683109,0,0,0.683109,69.612021,81.305163)"
       ns2:version="1.10.0"
       ns2:texconverter="pdflatex"
       ns2:pdfconverter="inkscape"
       ns2:text="$\\Omega_1$"
       ns2:preamble="/Users/daby/Library/Application Support/org.inkscape.Inkscape/config/inkscape/extensions/textext/default_packages.tex"
       ns2:scale="1.9363711850960938"
       ns2:alignment="middle center"
       ns2:stroke-to-path="0"
       id="g17"
       ns2:jacobian_sqrt="0.683109"
       inkscape:label="Omega1"
       style="fill:#3a46f5;fill-opacity:1">
      <defs
         id="id-3d0bbc64-fbd8-411d-9fca-574dbb59dca9" />
      <g
         fill="#000000"
         fill-opacity="1"
         id="id-35586f41-8fab-47b2-9c74-6ae04d7588ce"
         transform="translate(-149.15,-127.734)"
         style="fill:#3a46f5;fill-opacity:1">
        <g
           transform="translate(148.712,134.765)"
           id="g9046"
           style="fill:#3a46f5;fill-opacity:1">
          <path
             d="M 6.75,-1.609375 H 6.5 c -0.046875,0.25 -0.09375,0.484375 -0.1875,0.71875 -0.046875,0.15625 -0.078125,0.25 -0.65625,0.25 H 4.859375 C 5,-1.203125 5.296875,-1.6875 5.75,-2.34375 c 0.46875,-0.703125 0.875,-1.390625 0.875,-2.1875 0,-1.375 -1.34375,-2.5 -3.03125,-2.5 -1.703125,0 -3.03125,1.140625 -3.03125,2.5 0,0.796875 0.40625,1.484375 0.875,2.1875 0.4375,0.65625 0.75,1.140625 0.890625,1.703125 H 1.53125 C 0.953125,-0.640625 0.921875,-0.734375 0.875,-0.875 0.78125,-1.109375 0.734375,-1.359375 0.6875,-1.609375 h -0.25 L 0.765625,0 h 1.59375 c 0.21875,0 0.25,0 0.25,-0.203125 0,-0.703125 -0.3125,-1.578125 -0.53125,-2.21875 -0.21875,-0.578125 -0.5,-1.359375 -0.5,-2.109375 0,-1.59375 1.109375,-2.28125 2.015625,-2.28125 0.953125,0 2.015625,0.71875 2.015625,2.28125 0,0.75 -0.28125,1.5 -0.5625,2.3125 -0.15625,0.421875 -0.46875,1.328125 -0.46875,2.015625 C 4.578125,0 4.609375,0 4.828125,0 h 1.59375 z m 0,0"
             id="id-95bbd3e4-16bd-4601-8fb0-182d877207ad"
             style="fill:#3a46f5;fill-opacity:1" />
        </g>
      </g>
      <g
         fill="#000000"
         fill-opacity="1"
         id="id-bb267aed-66ce-4f6f-976a-e1dcec21cb23"
         transform="translate(-149.15,-127.734)"
         style="fill:#3a46f5;fill-opacity:1">
        <g
           transform="translate(155.908,136.259)"
           id="g9843"
           style="fill:#3a46f5;fill-opacity:1">
          <path
             d="m 2.328125,-4.4375 c 0,-0.1875 0,-0.1875 -0.203125,-0.1875 -0.453125,0.4375 -1.078125,0.4375 -1.359375,0.4375 v 0.25 c 0.15625,0 0.625,0 1,-0.1875 v 3.546875 c 0,0.234375 0,0.328125 -0.6875,0.328125 H 0.8125 V 0 c 0.125,0 0.984375,-0.03125 1.234375,-0.03125 0.21875,0 1.09375,0.03125 1.25,0.03125 V -0.25 H 3.03125 c -0.703125,0 -0.703125,-0.09375 -0.703125,-0.328125 z m 0,0"
             id="id-ebb3a34c-c43e-40a1-bf93-1519893c4f28"
             style="fill:#3a46f5;fill-opacity:1" />
        </g>
      </g>
    </g>
    <g
       transform="matrix(0.683109,0,0,0.683109,230.39469,73.850499)"
       ns2:version="1.10.0"
       ns2:texconverter="pdflatex"
       ns2:pdfconverter="inkscape"
       ns2:text="$\\Omega_n$"
       ns2:preamble="/Users/daby/Library/Application Support/org.inkscape.Inkscape/config/inkscape/extensions/textext/default_packages.tex"
       ns2:scale="1.9363711850960938"
       ns2:alignment="middle center"
       ns2:stroke-to-path="0"
       id="g33"
       ns2:jacobian_sqrt="0.683109"
       inkscape:label="Omegan"
       style="fill:#3a46f5;fill-opacity:1">
      <defs
         id="id-d59577e6-bcc4-41ca-8d5b-89c52bf0001b" />
      <g
         fill="#000000"
         fill-opacity="1"
         id="id-d253b1a4-601f-467d-9104-569fe15971b8"
         transform="translate(-149.15,-127.734)"
         style="fill:#3a46f5;fill-opacity:1">
        <g
           transform="translate(148.712,134.765)"
           id="g7869"
           style="fill:#3a46f5;fill-opacity:1">
          <path
             d="M 6.75,-1.609375 H 6.5 c -0.046875,0.25 -0.09375,0.484375 -0.1875,0.71875 -0.046875,0.15625 -0.078125,0.25 -0.65625,0.25 H 4.859375 C 5,-1.203125 5.296875,-1.6875 5.75,-2.34375 c 0.46875,-0.703125 0.875,-1.390625 0.875,-2.1875 0,-1.375 -1.34375,-2.5 -3.03125,-2.5 -1.703125,0 -3.03125,1.140625 -3.03125,2.5 0,0.796875 0.40625,1.484375 0.875,2.1875 0.4375,0.65625 0.75,1.140625 0.890625,1.703125 H 1.53125 C 0.953125,-0.640625 0.921875,-0.734375 0.875,-0.875 0.78125,-1.109375 0.734375,-1.359375 0.6875,-1.609375 h -0.25 L 0.765625,0 h 1.59375 c 0.21875,0 0.25,0 0.25,-0.203125 0,-0.703125 -0.3125,-1.578125 -0.53125,-2.21875 -0.21875,-0.578125 -0.5,-1.359375 -0.5,-2.109375 0,-1.59375 1.109375,-2.28125 2.015625,-2.28125 0.953125,0 2.015625,0.71875 2.015625,2.28125 0,0.75 -0.28125,1.5 -0.5625,2.3125 -0.15625,0.421875 -0.46875,1.328125 -0.46875,2.015625 C 4.578125,0 4.609375,0 4.828125,0 h 1.59375 z m 0,0"
             id="id-f844e05e-1523-43dd-93b4-1cb31d934193"
             style="fill:#3a46f5;fill-opacity:1" />
        </g>
      </g>
      <g
         fill="#000000"
         fill-opacity="1"
         id="id-d478a4c8-4898-494a-98a1-75821ac17427"
         transform="translate(-149.15,-127.734)"
         style="fill:#3a46f5;fill-opacity:1">
        <g
           transform="translate(155.908,136.259)"
           id="g8592"
           style="fill:#3a46f5;fill-opacity:1">
          <path
             d="m 0.84375,-0.4375 c -0.015625,0.09375 -0.0625,0.265625 -0.0625,0.28125 0,0.15625 0.125,0.21875 0.234375,0.21875 0.125,0 0.234375,-0.078125 0.28125,-0.140625 0.03125,-0.0625 0.078125,-0.296875 0.125,-0.4375 0.03125,-0.125 0.109375,-0.453125 0.140625,-0.625 0.046875,-0.15625 0.09375,-0.3125 0.125,-0.46875 0.078125,-0.28125 0.09375,-0.34375 0.296875,-0.625 C 2.171875,-2.515625 2.5,-2.875 3.03125,-2.875 c 0.390625,0 0.40625,0.359375 0.40625,0.484375 0,0.421875 -0.296875,1.1875 -0.40625,1.484375 -0.078125,0.203125 -0.109375,0.265625 -0.109375,0.375 0,0.375 0.296875,0.59375 0.65625,0.59375 0.703125,0 1,-0.953125 1,-1.0625 0,-0.09375 -0.078125,-0.09375 -0.109375,-0.09375 -0.09375,0 -0.09375,0.046875 -0.125,0.125 C 4.1875,-0.40625 3.875,-0.125 3.609375,-0.125 c -0.15625,0 -0.1875,-0.09375 -0.1875,-0.25 0,-0.15625 0.046875,-0.25 0.171875,-0.5625 0.078125,-0.21875 0.359375,-0.953125 0.359375,-1.34375 0,-0.671875 -0.53125,-0.796875 -0.90625,-0.796875 -0.578125,0 -0.96875,0.359375 -1.171875,0.640625 -0.046875,-0.484375 -0.453125,-0.640625 -0.75,-0.640625 -0.296875,0 -0.453125,0.21875 -0.546875,0.375 -0.15625,0.265625 -0.25,0.65625 -0.25,0.703125 0,0.078125 0.09375,0.078125 0.125,0.078125 0.09375,0 0.09375,-0.015625 0.140625,-0.203125 0.109375,-0.40625 0.25,-0.75 0.515625,-0.75 0.1875,0 0.234375,0.15625 0.234375,0.34375 0,0.125 -0.0625,0.390625 -0.125,0.578125 -0.046875,0.1875 -0.109375,0.46875 -0.140625,0.625 z m 0,0"
             id="id-6ed52889-4c87-4215-a8b2-95abd44dcefa"
             style="fill:#3a46f5;fill-opacity:1" />
        </g>
      </g>
    </g>
    <g
       transform="matrix(0.683109,0,0,0.683109,90.802967,51.333993)"
       ns2:version="1.10.0"
       ns2:texconverter="pdflatex"
       ns2:pdfconverter="inkscape"
       ns2:text="$\\phi_1$"
       ns2:preamble="/Users/daby/Library/Application Support/org.inkscape.Inkscape/config/inkscape/extensions/textext/default_packages.tex"
       ns2:scale="1.9363711850960938"
       ns2:alignment="middle center"
       ns2:stroke-to-path="0"
       id="g49"
       ns2:jacobian_sqrt="0.683109"
       inkscape:label="phi1"
       style="fill:#3a46f5;fill-opacity:1">
      <defs
         id="id-3a3984c2-3b62-4d52-881f-6514ba8bfc7f" />
      <g
         fill="#000000"
         fill-opacity="1"
         id="id-aa3caaad-81a2-465c-b584-637c7c318581"
         transform="translate(-149.196,-127.843)"
         style="fill:#3a46f5;fill-opacity:1">
        <g
           transform="translate(148.712,134.765)"
           id="g3799"
           style="fill:#3a46f5;fill-opacity:1">
          <path
             d="m 4.359375,-6.671875 c 0,-0.03125 0.03125,-0.140625 0.03125,-0.140625 0,-0.015625 0,-0.109375 -0.125,-0.109375 -0.09375,0 -0.109375,0.03125 -0.15625,0.203125 L 3.53125,-4.421875 c -1.578125,0.0625 -3.046875,1.375 -3.046875,2.734375 0,0.953125 0.703125,1.734375 1.921875,1.8125 C 2.328125,0.421875 2.25,0.75 2.171875,1.0625 c -0.125,0.46875 -0.21875,0.84375 -0.21875,0.875 0,0.09375 0.078125,0.109375 0.125,0.109375 C 2.125,2.046875 2.140625,2.03125 2.171875,2 2.1875,1.984375 2.25,1.75 2.28125,1.609375 L 2.65625,0.125 c 1.609375,-0.0625 3.0625,-1.40625 3.0625,-2.734375 0,-0.796875 -0.53125,-1.703125 -1.921875,-1.8125 z m -1.90625,6.578125 c -0.59375,-0.03125 -1.3125,-0.390625 -1.3125,-1.375 0,-1.203125 0.859375,-2.59375 2.34375,-2.734375 z m 1.28125,-4.109375 c 0.765625,0.046875 1.328125,0.5 1.328125,1.375 0,1.1875 -0.859375,2.609375 -2.34375,2.734375 z m 0,0"
             id="id-87f49fc0-5cd5-4e17-aca9-aa1af2066e29"
             style="fill:#3a46f5;fill-opacity:1" />
        </g>
      </g>
      <g
         fill="#000000"
         fill-opacity="1"
         id="id-ba779eb9-8359-43a4-b108-fd419277bff0"
         transform="translate(-149.196,-127.843)"
         style="fill:#3a46f5;fill-opacity:1">
        <g
           transform="translate(154.648,136.259)"
           id="g9692"
           style="fill:#3a46f5;fill-opacity:1">
          <path
             d="m 2.328125,-4.4375 c 0,-0.1875 0,-0.1875 -0.203125,-0.1875 -0.453125,0.4375 -1.078125,0.4375 -1.359375,0.4375 v 0.25 c 0.15625,0 0.625,0 1,-0.1875 v 3.546875 c 0,0.234375 0,0.328125 -0.6875,0.328125 H 0.8125 V 0 c 0.125,0 0.984375,-0.03125 1.234375,-0.03125 0.21875,0 1.09375,0.03125 1.25,0.03125 V -0.25 H 3.03125 c -0.703125,0 -0.703125,-0.09375 -0.703125,-0.328125 z m 0,0"
             id="id-e5e92d1f-a37c-4407-beb9-76ace15f6531"
             style="fill:#3a46f5;fill-opacity:1" />
        </g>
      </g>
    </g>
    <g
       transform="matrix(0.683109,0,0,0.683109,196.13621,58.68411)"
       ns2:version="1.10.0"
       ns2:texconverter="pdflatex"
       ns2:pdfconverter="inkscape"
       ns2:text="$\\phi_n$"
       ns2:preamble="/Users/daby/Library/Application Support/org.inkscape.Inkscape/config/inkscape/extensions/textext/default_packages.tex"
       ns2:scale="1.9363711850960938"
       ns2:alignment="middle center"
       ns2:stroke-to-path="0"
       id="g73"
       ns2:jacobian_sqrt="0.683109"
       inkscape:label="phin"
       style="fill:#3a46f5;fill-opacity:1">
      <defs
         id="id-05a29e0b-1bc6-45a2-9a68-979c395af698" />
      <g
         fill="#000000"
         fill-opacity="1"
         id="id-381b4fae-99cd-4958-99e4-1dc104728771"
         transform="translate(-149.196,-127.843)"
         style="fill:#3a46f5;fill-opacity:1">
        <g
           transform="translate(148.712,134.765)"
           id="g7548"
           style="fill:#3a46f5;fill-opacity:1">
          <path
             d="m 4.359375,-6.671875 c 0,-0.03125 0.03125,-0.140625 0.03125,-0.140625 0,-0.015625 0,-0.109375 -0.125,-0.109375 -0.09375,0 -0.109375,0.03125 -0.15625,0.203125 L 3.53125,-4.421875 c -1.578125,0.0625 -3.046875,1.375 -3.046875,2.734375 0,0.953125 0.703125,1.734375 1.921875,1.8125 C 2.328125,0.421875 2.25,0.75 2.171875,1.0625 c -0.125,0.46875 -0.21875,0.84375 -0.21875,0.875 0,0.09375 0.078125,0.109375 0.125,0.109375 C 2.125,2.046875 2.140625,2.03125 2.171875,2 2.1875,1.984375 2.25,1.75 2.28125,1.609375 L 2.65625,0.125 c 1.609375,-0.0625 3.0625,-1.40625 3.0625,-2.734375 0,-0.796875 -0.53125,-1.703125 -1.921875,-1.8125 z m -1.90625,6.578125 c -0.59375,-0.03125 -1.3125,-0.390625 -1.3125,-1.375 0,-1.203125 0.859375,-2.59375 2.34375,-2.734375 z m 1.28125,-4.109375 c 0.765625,0.046875 1.328125,0.5 1.328125,1.375 0,1.1875 -0.859375,2.609375 -2.34375,2.734375 z m 0,0"
             id="id-f892696d-d038-440a-a660-af7dbf305be4"
             style="fill:#3a46f5;fill-opacity:1" />
        </g>
      </g>
      <g
         fill="#000000"
         fill-opacity="1"
         id="id-4203c651-b0c5-4088-b150-e2341c952082"
         transform="translate(-149.196,-127.843)"
         style="fill:#3a46f5;fill-opacity:1">
        <g
           transform="translate(154.648,136.259)"
           id="g6095"
           style="fill:#3a46f5;fill-opacity:1">
          <path
             d="m 0.84375,-0.4375 c -0.015625,0.09375 -0.0625,0.265625 -0.0625,0.28125 0,0.15625 0.125,0.21875 0.234375,0.21875 0.125,0 0.234375,-0.078125 0.28125,-0.140625 0.03125,-0.0625 0.078125,-0.296875 0.125,-0.4375 0.03125,-0.125 0.109375,-0.453125 0.140625,-0.625 0.046875,-0.15625 0.09375,-0.3125 0.125,-0.46875 0.078125,-0.28125 0.09375,-0.34375 0.296875,-0.625 C 2.171875,-2.515625 2.5,-2.875 3.03125,-2.875 c 0.390625,0 0.40625,0.359375 0.40625,0.484375 0,0.421875 -0.296875,1.1875 -0.40625,1.484375 -0.078125,0.203125 -0.109375,0.265625 -0.109375,0.375 0,0.375 0.296875,0.59375 0.65625,0.59375 0.703125,0 1,-0.953125 1,-1.0625 0,-0.09375 -0.078125,-0.09375 -0.109375,-0.09375 -0.09375,0 -0.09375,0.046875 -0.125,0.125 C 4.1875,-0.40625 3.875,-0.125 3.609375,-0.125 c -0.15625,0 -0.1875,-0.09375 -0.1875,-0.25 0,-0.15625 0.046875,-0.25 0.171875,-0.5625 0.078125,-0.21875 0.359375,-0.953125 0.359375,-1.34375 0,-0.671875 -0.53125,-0.796875 -0.90625,-0.796875 -0.578125,0 -0.96875,0.359375 -1.171875,0.640625 -0.046875,-0.484375 -0.453125,-0.640625 -0.75,-0.640625 -0.296875,0 -0.453125,0.21875 -0.546875,0.375 -0.15625,0.265625 -0.25,0.65625 -0.25,0.703125 0,0.078125 0.09375,0.078125 0.125,0.078125 0.09375,0 0.09375,-0.015625 0.140625,-0.203125 0.109375,-0.40625 0.25,-0.75 0.515625,-0.75 0.1875,0 0.234375,0.15625 0.234375,0.34375 0,0.125 -0.0625,0.390625 -0.125,0.578125 -0.046875,0.1875 -0.109375,0.46875 -0.140625,0.625 z m 0,0"
             id="id-a14c8e71-5d43-49cb-b99a-4323c1da11b8"
             style="fill:#3a46f5;fill-opacity:1" />
        </g>
      </g>
    </g>
    <g
       transform="matrix(0.683109,0,0,0.683109,119.97071,110.36084)"
       ns2:version="1.10.0"
       ns2:texconverter="pdflatex"
       ns2:pdfconverter="inkscape"
       ns2:text="$\\phi_2$"
       ns2:preamble="/Users/daby/Library/Application Support/org.inkscape.Inkscape/config/inkscape/extensions/textext/default_packages.tex"
       ns2:scale="1.9363711850960938"
       ns2:alignment="middle center"
       ns2:stroke-to-path="0"
       id="g65"
       ns2:jacobian_sqrt="0.683109"
       inkscape:label="phi2"
       style="fill:#005776;fill-opacity:1">
      <defs
         id="id-884c832f-5e43-41d8-a8a3-6ac0619aaa0b" />
      <g
         fill="#000000"
         fill-opacity="1"
         id="id-b7f9f47b-39f4-4423-a233-3670b84a3a5e"
         transform="translate(-149.196,-127.843)"
         style="fill:#005776;fill-opacity:1">
        <g
           transform="translate(148.712,134.765)"
           id="g7735"
           style="fill:#005776;fill-opacity:1">
          <path
             d="m 4.359375,-6.671875 c 0,-0.03125 0.03125,-0.140625 0.03125,-0.140625 0,-0.015625 0,-0.109375 -0.125,-0.109375 -0.09375,0 -0.109375,0.03125 -0.15625,0.203125 L 3.53125,-4.421875 c -1.578125,0.0625 -3.046875,1.375 -3.046875,2.734375 0,0.953125 0.703125,1.734375 1.921875,1.8125 C 2.328125,0.421875 2.25,0.75 2.171875,1.0625 c -0.125,0.46875 -0.21875,0.84375 -0.21875,0.875 0,0.09375 0.078125,0.109375 0.125,0.109375 C 2.125,2.046875 2.140625,2.03125 2.171875,2 2.1875,1.984375 2.25,1.75 2.28125,1.609375 L 2.65625,0.125 c 1.609375,-0.0625 3.0625,-1.40625 3.0625,-2.734375 0,-0.796875 -0.53125,-1.703125 -1.921875,-1.8125 z m -1.90625,6.578125 c -0.59375,-0.03125 -1.3125,-0.390625 -1.3125,-1.375 0,-1.203125 0.859375,-2.59375 2.34375,-2.734375 z m 1.28125,-4.109375 c 0.765625,0.046875 1.328125,0.5 1.328125,1.375 0,1.1875 -0.859375,2.609375 -2.34375,2.734375 z m 0,0"
             id="id-08a8dbca-87e5-441c-aa9d-54721da1fdb5"
             style="fill:#3a46f5;fill-opacity:1" />
        </g>
      </g>
      <g
         fill="#000000"
         fill-opacity="1"
         id="id-8149e4ba-c38c-4d31-95c0-9247b2d941fa"
         transform="translate(-149.196,-127.843)"
         style="fill:#005776;fill-opacity:1">
        <g
           transform="translate(154.648,136.259)"
           id="g9788"
           style="fill:#005776;fill-opacity:1">
          <path
             d="M 3.515625,-1.265625 H 3.28125 c -0.015625,0.15625 -0.09375,0.5625 -0.1875,0.625 C 3.046875,-0.59375 2.515625,-0.59375 2.40625,-0.59375 H 1.125 c 0.734375,-0.640625 0.984375,-0.84375 1.390625,-1.171875 0.515625,-0.40625 1,-0.84375 1,-1.5 0,-0.84375 -0.734375,-1.359375 -1.625,-1.359375 -0.859375,0 -1.453125,0.609375 -1.453125,1.25 0,0.34375 0.296875,0.390625 0.375,0.390625 0.15625,0 0.359375,-0.125 0.359375,-0.375 0,-0.125 -0.046875,-0.375 -0.40625,-0.375 C 0.984375,-4.21875 1.453125,-4.375 1.78125,-4.375 c 0.703125,0 1.0625,0.546875 1.0625,1.109375 0,0.609375 -0.4375,1.078125 -0.65625,1.328125 L 0.515625,-0.265625 C 0.4375,-0.203125 0.4375,-0.1875 0.4375,0 h 2.875 z m 0,0"
             id="id-156733e6-129f-4ddc-a00e-693c20732e98"
             style="fill:#3a46f5;fill-opacity:1" />
        </g>
      </g>
    </g>
    <g
       transform="matrix(0.683109,0,0,0.683109,156.57823,67.834492)"
       ns2:version="1.10.0"
       ns2:texconverter="pdflatex"
       ns2:pdfconverter="inkscape"
       ns2:text="$\\overline{\\phi}$"
       ns2:preamble="/Users/daby/Library/Application Support/org.inkscape.Inkscape/config/inkscape/extensions/textext/default_packages.tex"
       ns2:scale="1.9363711850960938"
       ns2:alignment="middle center"
       ns2:stroke-to-path="0"
       id="g86"
       ns2:jacobian_sqrt="0.683109"
       inkscape:label="phibar"
       style="fill:#a92021;fill-opacity:1">
      <defs
         id="defs83" />
      <path
         fill="none"
         stroke-width="0.398"
         stroke-linecap="butt"
         stroke-linejoin="miter"
         stroke="#000000"
         stroke-opacity="1"
         stroke-miterlimit="10"
         d="M 0,0.199 H 5.9375005"
         id="path83"
         style="fill:#a92021;fill-opacity:1" />
      <g
         fill="#000000"
         fill-opacity="1"
         id="g85"
         transform="translate(-148.711,-126.25)"
         style="fill:#a92021;fill-opacity:1">
        <g
           transform="translate(148.712,134.765)"
           id="g84"
           style="fill:#a92021;fill-opacity:1">
          <path
             d="m 4.359375,-6.671875 c 0,-0.03125 0.03125,-0.140625 0.03125,-0.140625 0,-0.015625 0,-0.109375 -0.125,-0.109375 -0.09375,0 -0.109375,0.03125 -0.15625,0.203125 L 3.53125,-4.421875 c -1.578125,0.0625 -3.046875,1.375 -3.046875,2.734375 0,0.953125 0.703125,1.734375 1.921875,1.8125 C 2.328125,0.421875 2.25,0.75 2.171875,1.0625 c -0.125,0.46875 -0.21875,0.84375 -0.21875,0.875 0,0.09375 0.078125,0.109375 0.125,0.109375 C 2.125,2.046875 2.140625,2.03125 2.171875,2 2.1875,1.984375 2.25,1.75 2.28125,1.609375 L 2.65625,0.125 c 1.609375,-0.0625 3.0625,-1.40625 3.0625,-2.734375 0,-0.796875 -0.53125,-1.703125 -1.921875,-1.8125 z m -1.90625,6.578125 c -0.59375,-0.03125 -1.3125,-0.390625 -1.3125,-1.375 0,-1.203125 0.859375,-2.59375 2.34375,-2.734375 z m 1.28125,-4.109375 c 0.765625,0.046875 1.328125,0.5 1.328125,1.375 0,1.1875 -0.859375,2.609375 -2.34375,2.734375 z m 0,0"
             id="path84"
             style="fill:#a92021;fill-opacity:1" />
        </g>
      </g>
    </g>
    <g
       transform="matrix(0.683109,0,0,0.683109,209.27392,60.737792)"
       ns2:version="1.10.0"
       ns2:texconverter="pdflatex"
       ns2:pdfconverter="inkscape"
       ns2:text="$u_n$"
       ns2:preamble="/Users/daby/Library/Application Support/org.inkscape.Inkscape/config/inkscape/extensions/textext/default_packages.tex"
       ns2:scale="1.9363711850960938"
       ns2:alignment="middle center"
       ns2:stroke-to-path="0"
       id="g102"
       ns2:jacobian_sqrt="0.683109"
       inkscape:label="un"
       style="fill:#3a46f5;fill-opacity:1">
      <defs
         id="id-044bd79c-94a6-4a56-9f12-a1439629e073" />
      <g
         fill="#000000"
         fill-opacity="1"
         id="id-701e97c9-f9df-46ee-b731-bfd98e734426"
         transform="translate(-149.009,-130.359)"
         style="fill:#3a46f5;fill-opacity:1">
        <g
           transform="translate(148.712,134.765)"
           id="g4760"
           style="fill:#3a46f5;fill-opacity:1">
          <path
             d="M 3.484375,-0.5625 C 3.59375,-0.15625 3.953125,0.109375 4.375,0.109375 4.71875,0.109375 4.953125,-0.125 5.109375,-0.4375 5.28125,-0.796875 5.40625,-1.40625 5.40625,-1.421875 c 0,-0.109375 -0.078125,-0.109375 -0.109375,-0.109375 -0.109375,0 -0.109375,0.046875 -0.140625,0.1875 -0.140625,0.5625 -0.328125,1.234375 -0.75,1.234375 -0.203125,0 -0.3125,-0.125 -0.3125,-0.453125 0,-0.21875 0.125,-0.6875 0.203125,-1.046875 L 4.578125,-2.6875 C 4.609375,-2.828125 4.703125,-3.203125 4.75,-3.359375 4.796875,-3.59375 4.890625,-3.96875 4.890625,-4.03125 c 0,-0.171875 -0.140625,-0.265625 -0.28125,-0.265625 -0.046875,0 -0.3125,0.015625 -0.390625,0.34375 -0.1875,0.734375 -0.625,2.484375 -0.75,3 -0.015625,0.046875 -0.40625,0.84375 -1.140625,0.84375 -0.515625,0 -0.609375,-0.453125 -0.609375,-0.8125 0,-0.5625 0.28125,-1.34375 0.53125,-2.03125 0.125,-0.3125 0.171875,-0.453125 0.171875,-0.640625 0,-0.4375 -0.3125,-0.8125 -0.8125,-0.8125 -0.953125,0 -1.3125,1.453125 -1.3125,1.53125 0,0.109375 0.09375,0.109375 0.109375,0.109375 0.109375,0 0.109375,-0.03125 0.15625,-0.1875 0.25,-0.859375 0.640625,-1.234375 1.015625,-1.234375 0.09375,0 0.25,0.015625 0.25,0.328125 0,0.234375 -0.109375,0.53125 -0.171875,0.671875 -0.375,1 -0.578125,1.609375 -0.578125,2.09375 0,0.953125 0.6875,1.203125 1.21875,1.203125 0.65625,0 1.015625,-0.453125 1.1875,-0.671875 z m 0,0"
             id="id-a32a9f0a-d31b-4c42-bf1f-97e532e9c299"
             style="fill:#3a46f5;fill-opacity:1" />
        </g>
      </g>
      <g
         fill="#000000"
         fill-opacity="1"
         id="id-eac79acd-1617-47e7-aaef-12c31ce8c3c4"
         transform="translate(-149.009,-130.359)"
         style="fill:#3a46f5;fill-opacity:1">
        <g
           transform="translate(154.415,136.259)"
           id="g3318"
           style="fill:#3a46f5;fill-opacity:1">
          <path
             d="m 0.84375,-0.4375 c -0.015625,0.09375 -0.0625,0.265625 -0.0625,0.28125 0,0.15625 0.125,0.21875 0.234375,0.21875 0.125,0 0.234375,-0.078125 0.28125,-0.140625 0.03125,-0.0625 0.078125,-0.296875 0.125,-0.4375 0.03125,-0.125 0.109375,-0.453125 0.140625,-0.625 0.046875,-0.15625 0.09375,-0.3125 0.125,-0.46875 0.078125,-0.28125 0.09375,-0.34375 0.296875,-0.625 C 2.171875,-2.515625 2.5,-2.875 3.03125,-2.875 c 0.390625,0 0.40625,0.359375 0.40625,0.484375 0,0.421875 -0.296875,1.1875 -0.40625,1.484375 -0.078125,0.203125 -0.109375,0.265625 -0.109375,0.375 0,0.375 0.296875,0.59375 0.65625,0.59375 0.703125,0 1,-0.953125 1,-1.0625 0,-0.09375 -0.078125,-0.09375 -0.109375,-0.09375 -0.09375,0 -0.09375,0.046875 -0.125,0.125 C 4.1875,-0.40625 3.875,-0.125 3.609375,-0.125 c -0.15625,0 -0.1875,-0.09375 -0.1875,-0.25 0,-0.15625 0.046875,-0.25 0.171875,-0.5625 0.078125,-0.21875 0.359375,-0.953125 0.359375,-1.34375 0,-0.671875 -0.53125,-0.796875 -0.90625,-0.796875 -0.578125,0 -0.96875,0.359375 -1.171875,0.640625 -0.046875,-0.484375 -0.453125,-0.640625 -0.75,-0.640625 -0.296875,0 -0.453125,0.21875 -0.546875,0.375 -0.15625,0.265625 -0.25,0.65625 -0.25,0.703125 0,0.078125 0.09375,0.078125 0.125,0.078125 0.09375,0 0.09375,-0.015625 0.140625,-0.203125 0.109375,-0.40625 0.25,-0.75 0.515625,-0.75 0.1875,0 0.234375,0.15625 0.234375,0.34375 0,0.125 -0.0625,0.390625 -0.125,0.578125 -0.046875,0.1875 -0.109375,0.46875 -0.140625,0.625 z m 0,0"
             id="id-c3919d71-2c15-47a1-9d3a-2e40c004371c"
             style="fill:#3a46f5;fill-opacity:1" />
        </g>
      </g>
    </g>
    <g
       transform="matrix(0.683109,0,0,0.683109,166.63804,69.394201)"
       ns2:version="1.10.0"
       ns2:texconverter="pdflatex"
       ns2:pdfconverter="inkscape"
       ns2:text="$\\overline{u}$"
       ns2:preamble="/Users/daby/Library/Application Support/org.inkscape.Inkscape/config/inkscape/extensions/textext/default_packages.tex"
       ns2:scale="1.9363711850960938"
       ns2:alignment="middle center"
       ns2:stroke-to-path="0"
       id="g57"
       ns2:jacobian_sqrt="0.683109"
       inkscape:label="ubar"
       style="fill:#a92021;fill-opacity:1">
      <defs
         id="id-b526ca6d-9d71-4762-b4b1-86a68d4ed126" />
      <path
         fill="none"
         stroke-width="0.398"
         stroke-linecap="butt"
         stroke-linejoin="miter"
         stroke="#000000"
         stroke-opacity="1"
         stroke-miterlimit="10"
         d="M 0,0.199 H 5.7031255"
         id="id-f0d9a5e0-dc2c-460d-a932-93f1ced12925"
         style="fill:#a92021;fill-opacity:1" />
      <g
         fill="#000000"
         fill-opacity="1"
         id="id-17a42651-b660-419e-b89b-379e17290869"
         transform="translate(-148.711,-128.879)"
         style="fill:#a92021;fill-opacity:1">
        <g
           transform="translate(148.712,134.765)"
           id="g5679"
           style="fill:#a92021;fill-opacity:1">
          <path
             d="M 3.484375,-0.5625 C 3.59375,-0.15625 3.953125,0.109375 4.375,0.109375 4.71875,0.109375 4.953125,-0.125 5.109375,-0.4375 5.28125,-0.796875 5.40625,-1.40625 5.40625,-1.421875 c 0,-0.109375 -0.078125,-0.109375 -0.109375,-0.109375 -0.109375,0 -0.109375,0.046875 -0.140625,0.1875 -0.140625,0.5625 -0.328125,1.234375 -0.75,1.234375 -0.203125,0 -0.3125,-0.125 -0.3125,-0.453125 0,-0.21875 0.125,-0.6875 0.203125,-1.046875 L 4.578125,-2.6875 C 4.609375,-2.828125 4.703125,-3.203125 4.75,-3.359375 4.796875,-3.59375 4.890625,-3.96875 4.890625,-4.03125 c 0,-0.171875 -0.140625,-0.265625 -0.28125,-0.265625 -0.046875,0 -0.3125,0.015625 -0.390625,0.34375 -0.1875,0.734375 -0.625,2.484375 -0.75,3 -0.015625,0.046875 -0.40625,0.84375 -1.140625,0.84375 -0.515625,0 -0.609375,-0.453125 -0.609375,-0.8125 0,-0.5625 0.28125,-1.34375 0.53125,-2.03125 0.125,-0.3125 0.171875,-0.453125 0.171875,-0.640625 0,-0.4375 -0.3125,-0.8125 -0.8125,-0.8125 -0.953125,0 -1.3125,1.453125 -1.3125,1.53125 0,0.109375 0.09375,0.109375 0.109375,0.109375 0.109375,0 0.109375,-0.03125 0.15625,-0.1875 0.25,-0.859375 0.640625,-1.234375 1.015625,-1.234375 0.09375,0 0.25,0.015625 0.25,0.328125 0,0.234375 -0.109375,0.53125 -0.171875,0.671875 -0.375,1 -0.578125,1.609375 -0.578125,2.09375 0,0.953125 0.6875,1.203125 1.21875,1.203125 0.65625,0 1.015625,-0.453125 1.1875,-0.671875 z m 0,0"
             id="id-8ff17c67-858d-4e3e-84b2-17c11ba93dfc"
             style="fill:#a92021;fill-opacity:1" />
        </g>
      </g>
    </g>
    <g
       transform="matrix(0.683109,0,0,0.683109,131.83407,112.45722)"
       ns2:version="1.10.0"
       ns2:texconverter="pdflatex"
       ns2:pdfconverter="inkscape"
       ns2:text="$u_2$"
       ns2:preamble="/Users/daby/Library/Application Support/org.inkscape.Inkscape/config/inkscape/extensions/textext/default_packages.tex"
       ns2:scale="1.9363711850960938"
       ns2:alignment="middle center"
       ns2:stroke-to-path="0"
       id="g94"
       ns2:jacobian_sqrt="0.683109"
       inkscape:label="u2"
       style="fill:#005776;fill-opacity:1">
      <defs
         id="id-34b56bf4-4e80-4875-a444-802b2a26018c" />
      <g
         fill="#000000"
         fill-opacity="1"
         id="id-e90cbfce-d046-490a-9bf8-38512a052bef"
         transform="translate(-149.009,-130.359)"
         style="fill:#005776;fill-opacity:1">
        <g
           transform="translate(148.712,134.765)"
           id="g2455"
           style="fill:#005776;fill-opacity:1">
          <path
             d="M 3.484375,-0.5625 C 3.59375,-0.15625 3.953125,0.109375 4.375,0.109375 4.71875,0.109375 4.953125,-0.125 5.109375,-0.4375 5.28125,-0.796875 5.40625,-1.40625 5.40625,-1.421875 c 0,-0.109375 -0.078125,-0.109375 -0.109375,-0.109375 -0.109375,0 -0.109375,0.046875 -0.140625,0.1875 -0.140625,0.5625 -0.328125,1.234375 -0.75,1.234375 -0.203125,0 -0.3125,-0.125 -0.3125,-0.453125 0,-0.21875 0.125,-0.6875 0.203125,-1.046875 L 4.578125,-2.6875 C 4.609375,-2.828125 4.703125,-3.203125 4.75,-3.359375 4.796875,-3.59375 4.890625,-3.96875 4.890625,-4.03125 c 0,-0.171875 -0.140625,-0.265625 -0.28125,-0.265625 -0.046875,0 -0.3125,0.015625 -0.390625,0.34375 -0.1875,0.734375 -0.625,2.484375 -0.75,3 -0.015625,0.046875 -0.40625,0.84375 -1.140625,0.84375 -0.515625,0 -0.609375,-0.453125 -0.609375,-0.8125 0,-0.5625 0.28125,-1.34375 0.53125,-2.03125 0.125,-0.3125 0.171875,-0.453125 0.171875,-0.640625 0,-0.4375 -0.3125,-0.8125 -0.8125,-0.8125 -0.953125,0 -1.3125,1.453125 -1.3125,1.53125 0,0.109375 0.09375,0.109375 0.109375,0.109375 0.109375,0 0.109375,-0.03125 0.15625,-0.1875 0.25,-0.859375 0.640625,-1.234375 1.015625,-1.234375 0.09375,0 0.25,0.015625 0.25,0.328125 0,0.234375 -0.109375,0.53125 -0.171875,0.671875 -0.375,1 -0.578125,1.609375 -0.578125,2.09375 0,0.953125 0.6875,1.203125 1.21875,1.203125 0.65625,0 1.015625,-0.453125 1.1875,-0.671875 z m 0,0"
             id="id-10037c1a-3bcf-4936-8e55-61ea4677145d"
             style="fill:#3a46f5;fill-opacity:1" />
        </g>
      </g>
      <g
         fill="#000000"
         fill-opacity="1"
         id="id-4b888e95-39f8-4731-8ea0-18fd9bde2c82"
         transform="translate(-149.009,-130.359)"
         style="fill:#005776;fill-opacity:1">
        <g
           transform="translate(154.415,136.259)"
           id="g3659"
           style="fill:#005776;fill-opacity:1">
          <path
             d="M 3.515625,-1.265625 H 3.28125 c -0.015625,0.15625 -0.09375,0.5625 -0.1875,0.625 C 3.046875,-0.59375 2.515625,-0.59375 2.40625,-0.59375 H 1.125 c 0.734375,-0.640625 0.984375,-0.84375 1.390625,-1.171875 0.515625,-0.40625 1,-0.84375 1,-1.5 0,-0.84375 -0.734375,-1.359375 -1.625,-1.359375 -0.859375,0 -1.453125,0.609375 -1.453125,1.25 0,0.34375 0.296875,0.390625 0.375,0.390625 0.15625,0 0.359375,-0.125 0.359375,-0.375 0,-0.125 -0.046875,-0.375 -0.40625,-0.375 C 0.984375,-4.21875 1.453125,-4.375 1.78125,-4.375 c 0.703125,0 1.0625,0.546875 1.0625,1.109375 0,0.609375 -0.4375,1.078125 -0.65625,1.328125 L 0.515625,-0.265625 C 0.4375,-0.203125 0.4375,-0.1875 0.4375,0 h 2.875 z m 0,0"
             id="id-17e22667-1b8d-4256-99ce-57302676f5de"
             style="fill:#3a46f5;fill-opacity:1" />
        </g>
      </g>
    </g>
    <g
       transform="matrix(0.683109,0,0,0.683109,104.69901,53.430369)"
       ns2:version="1.10.0"
       ns2:texconverter="pdflatex"
       ns2:pdfconverter="inkscape"
       ns2:text="$u_1$"
       ns2:preamble="/Users/daby/Library/Application Support/org.inkscape.Inkscape/config/inkscape/extensions/textext/default_packages.tex"
       ns2:scale="1.9363711850960938"
       ns2:alignment="middle center"
       ns2:stroke-to-path="0"
       id="g81"
       ns2:jacobian_sqrt="0.683109"
       style="display:inline;fill:#3a46f5;fill-opacity:1"
       inkscape:label="u1">
      <defs
         id="id-b398106c-5267-4d9e-841e-ab5f4c849f3a" />
      <g
         fill="#000000"
         fill-opacity="1"
         id="id-8d6dcf27-1c6e-4de1-909b-8ddebe7e4d32"
         transform="translate(-149.009,-130.359)"
         style="fill:#3a46f5;fill-opacity:1">
        <g
           transform="translate(148.712,134.765)"
           id="g1141"
           style="fill:#3a46f5;fill-opacity:1">
          <path
             d="M 3.484375,-0.5625 C 3.59375,-0.15625 3.953125,0.109375 4.375,0.109375 4.71875,0.109375 4.953125,-0.125 5.109375,-0.4375 5.28125,-0.796875 5.40625,-1.40625 5.40625,-1.421875 c 0,-0.109375 -0.078125,-0.109375 -0.109375,-0.109375 -0.109375,0 -0.109375,0.046875 -0.140625,0.1875 -0.140625,0.5625 -0.328125,1.234375 -0.75,1.234375 -0.203125,0 -0.3125,-0.125 -0.3125,-0.453125 0,-0.21875 0.125,-0.6875 0.203125,-1.046875 L 4.578125,-2.6875 C 4.609375,-2.828125 4.703125,-3.203125 4.75,-3.359375 4.796875,-3.59375 4.890625,-3.96875 4.890625,-4.03125 c 0,-0.171875 -0.140625,-0.265625 -0.28125,-0.265625 -0.046875,0 -0.3125,0.015625 -0.390625,0.34375 -0.1875,0.734375 -0.625,2.484375 -0.75,3 -0.015625,0.046875 -0.40625,0.84375 -1.140625,0.84375 -0.515625,0 -0.609375,-0.453125 -0.609375,-0.8125 0,-0.5625 0.28125,-1.34375 0.53125,-2.03125 0.125,-0.3125 0.171875,-0.453125 0.171875,-0.640625 0,-0.4375 -0.3125,-0.8125 -0.8125,-0.8125 -0.953125,0 -1.3125,1.453125 -1.3125,1.53125 0,0.109375 0.09375,0.109375 0.109375,0.109375 0.109375,0 0.109375,-0.03125 0.15625,-0.1875 0.25,-0.859375 0.640625,-1.234375 1.015625,-1.234375 0.09375,0 0.25,0.015625 0.25,0.328125 0,0.234375 -0.109375,0.53125 -0.171875,0.671875 -0.375,1 -0.578125,1.609375 -0.578125,2.09375 0,0.953125 0.6875,1.203125 1.21875,1.203125 0.65625,0 1.015625,-0.453125 1.1875,-0.671875 z m 0,0"
             id="id-96fdd6c4-1179-4958-bade-9452261b427b"
             style="fill:#3a46f5;fill-opacity:1" />
        </g>
      </g>
      <g
         fill="#000000"
         fill-opacity="1"
         id="id-07440ebd-5289-4e60-a759-284868c08b30"
         transform="translate(-149.009,-130.359)"
         style="fill:#3a46f5;fill-opacity:1">
        <g
           transform="translate(154.415,136.259)"
           id="g8187"
           style="fill:#3a46f5;fill-opacity:1">
          <path
             d="m 2.328125,-4.4375 c 0,-0.1875 0,-0.1875 -0.203125,-0.1875 -0.453125,0.4375 -1.078125,0.4375 -1.359375,0.4375 v 0.25 c 0.15625,0 0.625,0 1,-0.1875 v 3.546875 c 0,0.234375 0,0.328125 -0.6875,0.328125 H 0.8125 V 0 c 0.125,0 0.984375,-0.03125 1.234375,-0.03125 0.21875,0 1.09375,0.03125 1.25,0.03125 V -0.25 H 3.03125 c -0.703125,0 -0.703125,-0.09375 -0.703125,-0.328125 z m 0,0"
             id="id-f74e98d3-f50b-4491-8cee-b61dc39aea2a"
             style="fill:#3a46f5;fill-opacity:1" />
        </g>
      </g>
    </g>
    <path
       style="display:inline;fill:none;stroke:#3a46f5;stroke-width:0.499999;stroke-dasharray:none;stroke-dashoffset:0;stroke-opacity:1;marker-end:url(#DartArrow);fill-opacity:1"
       d="M 133.04573,28.34534 C 104.61559,39.742921 97.598444,55.985695 92.574409,89.775081"
       id="path102"
       sodipodi:nodetypes="cc"
       inkscape:label="phi_1" />
    <path
       style="display:inline;fill:none;stroke:#3a46f5;stroke-width:0.499999;stroke-dasharray:none;stroke-dashoffset:0;stroke-opacity:1;marker-end:url(#DartArrow);fill-opacity:1"
       d="m 133.04573,28.34534 c -10.35755,28.442325 -7.32832,80.29036 -0.10922,108.7763"
       id="path103"
       sodipodi:nodetypes="cc"
       inkscape:label="phi_2" />
    <path
       style="display:inline;fill:none;stroke:#a92021;stroke-width:0.499999;stroke-dasharray:none;stroke-dashoffset:0;stroke-opacity:1;marker-end:url(#DartArrow);fill-opacity:1"
       d="m 133.04573,28.34534 c 14.41914,7.002984 34.00244,42.178732 36.35936,67.50814"
       id="path104"
       sodipodi:nodetypes="cc"
       inkscape:label="phi_bar" />
    <path
       style="display:inline;fill:none;stroke:#3a46f5;stroke-width:0.499999;stroke-dasharray:none;stroke-dashoffset:0;stroke-opacity:1;marker-end:url(#DartArrow);fill-opacity:1"
       d="m 133.04573,28.34534 c 42.27579,-2.954419 76.37995,31.87317 89.45735,61.429741"
       id="path105"
       sodipodi:nodetypes="cc"
       inkscape:label="phi_n" />
    <ellipse
       style="display:inline;fill:#000000;fill-opacity:1;stroke:#000000;stroke-width:0.499999;stroke-dasharray:none;stroke-dashoffset:0;stroke-opacity:1"
       id="path106"
       cx="133.04573"
       cy="28.345343"
       rx="1.3215271"
       ry="1.383814"
       inkscape:label="X_)" />
    <path
       style="fill:#00667f;fill-opacity:1;stroke:none;stroke-width:0.499999;stroke-dasharray:none;stroke-dashoffset:0;stroke-opacity:1"
       d="M 169.40509,95.853479 132.93651,137.12164"
       id="path109" />
    <path
       style="fill:none;fill-opacity:1;stroke:#3a46f5;stroke-width:0.5;stroke-dasharray:2, 0.5;stroke-dashoffset:0;stroke-opacity:1;marker-end:url(#marker114)"
       d="m 169.59432,98.888876 c 20.11285,12.538974 38.18675,6.851804 51.74732,-4.305882"
       id="path112"
       sodipodi:nodetypes="cc" />
    <path
       style="fill:none;fill-opacity:1;stroke:#3a46f5;stroke-width:0.5;stroke-dasharray:2, 0.5;stroke-dashoffset:0;stroke-opacity:1;marker-end:url(#marker114)"
       d="M 169.62292,98.943676 C 159.02657,78.579909 111.60669,78.980875 94.683514,91.036986"
       id="path113"
       sodipodi:nodetypes="cc" />
    <path
       style="fill:none;fill-opacity:1;stroke:#3a46f5;stroke-width:0.499999;stroke-dasharray:2, 0.499999;stroke-dashoffset:0;stroke-opacity:1;marker-end:url(#marker117)"
       d="m 169.62292,98.943676 c -2.06,20.023014 -16.54338,35.346394 -32.97378,40.324324"
       id="path115"
       sodipodi:nodetypes="cc" />
    <g
       transform="matrix(0.683109,0,0,0.683109,154.55152,113.62079)"
       ns2:version="1.10.0"
       ns2:texconverter="pdflatex"
       ns2:pdfconverter="inkscape"
       ns2:text="$\\phi_2$"
       ns2:preamble="/Users/daby/Library/Application Support/org.inkscape.Inkscape/config/inkscape/extensions/textext/default_packages.tex"
       ns2:scale="1.9363711850960938"
       ns2:alignment="middle center"
       ns2:stroke-to-path="0"
       id="g131"
       ns2:jacobian_sqrt="0.683109"
       inkscape:label="phi2"
       style="fill:#005776;fill-opacity:1">
      <defs
         id="defs126" />
      <g
         fill="#000000"
         fill-opacity="1"
         id="g128"
         transform="translate(-149.196,-127.843)"
         style="fill:#005776;fill-opacity:1">
        <g
           transform="translate(148.712,134.765)"
           id="g127"
           style="fill:#005776;fill-opacity:1">
          <path
             d="m 4.359375,-6.671875 c 0,-0.03125 0.03125,-0.140625 0.03125,-0.140625 0,-0.015625 0,-0.109375 -0.125,-0.109375 -0.09375,0 -0.109375,0.03125 -0.15625,0.203125 L 3.53125,-4.421875 c -1.578125,0.0625 -3.046875,1.375 -3.046875,2.734375 0,0.953125 0.703125,1.734375 1.921875,1.8125 C 2.328125,0.421875 2.25,0.75 2.171875,1.0625 c -0.125,0.46875 -0.21875,0.84375 -0.21875,0.875 0,0.09375 0.078125,0.109375 0.125,0.109375 C 2.125,2.046875 2.140625,2.03125 2.171875,2 2.1875,1.984375 2.25,1.75 2.28125,1.609375 L 2.65625,0.125 c 1.609375,-0.0625 3.0625,-1.40625 3.0625,-2.734375 0,-0.796875 -0.53125,-1.703125 -1.921875,-1.8125 z m -1.90625,6.578125 c -0.59375,-0.03125 -1.3125,-0.390625 -1.3125,-1.375 0,-1.203125 0.859375,-2.59375 2.34375,-2.734375 z m 1.28125,-4.109375 c 0.765625,0.046875 1.328125,0.5 1.328125,1.375 0,1.1875 -0.859375,2.609375 -2.34375,2.734375 z m 0,0"
             id="path126"
             style="fill:#3a46f5;fill-opacity:1" />
        </g>
      </g>
      <g
         fill="#000000"
         fill-opacity="1"
         id="g130"
         transform="translate(-149.196,-127.843)"
         style="fill:#005776;fill-opacity:1">
        <g
           transform="translate(154.648,136.259)"
           id="g129"
           style="fill:#005776;fill-opacity:1">
          <path
             d="M 3.515625,-1.265625 H 3.28125 c -0.015625,0.15625 -0.09375,0.5625 -0.1875,0.625 C 3.046875,-0.59375 2.515625,-0.59375 2.40625,-0.59375 H 1.125 c 0.734375,-0.640625 0.984375,-0.84375 1.390625,-1.171875 0.515625,-0.40625 1,-0.84375 1,-1.5 0,-0.84375 -0.734375,-1.359375 -1.625,-1.359375 -0.859375,0 -1.453125,0.609375 -1.453125,1.25 0,0.34375 0.296875,0.390625 0.375,0.390625 0.15625,0 0.359375,-0.125 0.359375,-0.375 0,-0.125 -0.046875,-0.375 -0.40625,-0.375 C 0.984375,-4.21875 1.453125,-4.375 1.78125,-4.375 c 0.703125,0 1.0625,0.546875 1.0625,1.109375 0,0.609375 -0.4375,1.078125 -0.65625,1.328125 L 0.515625,-0.265625 C 0.4375,-0.203125 0.4375,-0.1875 0.4375,0 h 2.875 z m 0,0"
             id="path128"
             style="fill:#3a46f5;fill-opacity:1" />
        </g>
      </g>
    </g>
    <g
       transform="matrix(0.683109,0,0,0.683109,166.41488,115.71716)"
       ns2:version="1.10.0"
       ns2:texconverter="pdflatex"
       ns2:pdfconverter="inkscape"
       ns2:text="$u_2$"
       ns2:preamble="/Users/daby/Library/Application Support/org.inkscape.Inkscape/config/inkscape/extensions/textext/default_packages.tex"
       ns2:scale="1.9363711850960938"
       ns2:alignment="middle center"
       ns2:stroke-to-path="0"
       id="g139"
       ns2:jacobian_sqrt="0.683109"
       inkscape:label="u2"
       style="fill:#005776;fill-opacity:1">
      <defs
         id="defs134" />
      <g
         fill="#000000"
         fill-opacity="1"
         id="g136"
         transform="translate(-149.009,-130.359)"
         style="fill:#005776;fill-opacity:1">
        <g
           transform="translate(148.712,134.765)"
           id="g135"
           style="fill:#005776;fill-opacity:1">
          <path
             d="M 3.484375,-0.5625 C 3.59375,-0.15625 3.953125,0.109375 4.375,0.109375 4.71875,0.109375 4.953125,-0.125 5.109375,-0.4375 5.28125,-0.796875 5.40625,-1.40625 5.40625,-1.421875 c 0,-0.109375 -0.078125,-0.109375 -0.109375,-0.109375 -0.109375,0 -0.109375,0.046875 -0.140625,0.1875 -0.140625,0.5625 -0.328125,1.234375 -0.75,1.234375 -0.203125,0 -0.3125,-0.125 -0.3125,-0.453125 0,-0.21875 0.125,-0.6875 0.203125,-1.046875 L 4.578125,-2.6875 C 4.609375,-2.828125 4.703125,-3.203125 4.75,-3.359375 4.796875,-3.59375 4.890625,-3.96875 4.890625,-4.03125 c 0,-0.171875 -0.140625,-0.265625 -0.28125,-0.265625 -0.046875,0 -0.3125,0.015625 -0.390625,0.34375 -0.1875,0.734375 -0.625,2.484375 -0.75,3 -0.015625,0.046875 -0.40625,0.84375 -1.140625,0.84375 -0.515625,0 -0.609375,-0.453125 -0.609375,-0.8125 0,-0.5625 0.28125,-1.34375 0.53125,-2.03125 0.125,-0.3125 0.171875,-0.453125 0.171875,-0.640625 0,-0.4375 -0.3125,-0.8125 -0.8125,-0.8125 -0.953125,0 -1.3125,1.453125 -1.3125,1.53125 0,0.109375 0.09375,0.109375 0.109375,0.109375 0.109375,0 0.109375,-0.03125 0.15625,-0.1875 0.25,-0.859375 0.640625,-1.234375 1.015625,-1.234375 0.09375,0 0.25,0.015625 0.25,0.328125 0,0.234375 -0.109375,0.53125 -0.171875,0.671875 -0.375,1 -0.578125,1.609375 -0.578125,2.09375 0,0.953125 0.6875,1.203125 1.21875,1.203125 0.65625,0 1.015625,-0.453125 1.1875,-0.671875 z m 0,0"
             id="path134"
             style="fill:#3a46f5;fill-opacity:1" />
        </g>
      </g>
      <g
         fill="#000000"
         fill-opacity="1"
         id="g138"
         transform="translate(-149.009,-130.359)"
         style="fill:#005776;fill-opacity:1">
        <g
           transform="translate(154.415,136.259)"
           id="g137"
           style="fill:#005776;fill-opacity:1">
          <path
             d="M 3.515625,-1.265625 H 3.28125 c -0.015625,0.15625 -0.09375,0.5625 -0.1875,0.625 C 3.046875,-0.59375 2.515625,-0.59375 2.40625,-0.59375 H 1.125 c 0.734375,-0.640625 0.984375,-0.84375 1.390625,-1.171875 0.515625,-0.40625 1,-0.84375 1,-1.5 0,-0.84375 -0.734375,-1.359375 -1.625,-1.359375 -0.859375,0 -1.453125,0.609375 -1.453125,1.25 0,0.34375 0.296875,0.390625 0.375,0.390625 0.15625,0 0.359375,-0.125 0.359375,-0.375 0,-0.125 -0.046875,-0.375 -0.40625,-0.375 C 0.984375,-4.21875 1.453125,-4.375 1.78125,-4.375 c 0.703125,0 1.0625,0.546875 1.0625,1.109375 0,0.609375 -0.4375,1.078125 -0.65625,1.328125 L 0.515625,-0.265625 C 0.4375,-0.203125 0.4375,-0.1875 0.4375,0 h 2.875 z m 0,0"
             id="path136"
             style="fill:#3a46f5;fill-opacity:1" />
        </g>
      </g>
    </g>
    <g
       transform="matrix(0.683109,0,0,0.683109,144.47653,75.715212)"
       ns2:version="1.10.0"
       ns2:texconverter="pdflatex"
       ns2:pdfconverter="inkscape"
       ns2:text="$\\phi_1$"
       ns2:preamble="/Users/daby/Library/Application Support/org.inkscape.Inkscape/config/inkscape/extensions/textext/default_packages.tex"
       ns2:scale="1.9363711850960938"
       ns2:alignment="middle center"
       ns2:stroke-to-path="0"
       id="g147"
       ns2:jacobian_sqrt="0.683109"
       inkscape:label="phi1"
       style="fill:#3a46f5;fill-opacity:1">
      <defs
         id="defs142" />
      <g
         fill="#000000"
         fill-opacity="1"
         id="g144"
         transform="translate(-149.196,-127.843)"
         style="fill:#3a46f5;fill-opacity:1">
        <g
           transform="translate(148.712,134.765)"
           id="g143"
           style="fill:#3a46f5;fill-opacity:1">
          <path
             d="m 4.359375,-6.671875 c 0,-0.03125 0.03125,-0.140625 0.03125,-0.140625 0,-0.015625 0,-0.109375 -0.125,-0.109375 -0.09375,0 -0.109375,0.03125 -0.15625,0.203125 L 3.53125,-4.421875 c -1.578125,0.0625 -3.046875,1.375 -3.046875,2.734375 0,0.953125 0.703125,1.734375 1.921875,1.8125 C 2.328125,0.421875 2.25,0.75 2.171875,1.0625 c -0.125,0.46875 -0.21875,0.84375 -0.21875,0.875 0,0.09375 0.078125,0.109375 0.125,0.109375 C 2.125,2.046875 2.140625,2.03125 2.171875,2 2.1875,1.984375 2.25,1.75 2.28125,1.609375 L 2.65625,0.125 c 1.609375,-0.0625 3.0625,-1.40625 3.0625,-2.734375 0,-0.796875 -0.53125,-1.703125 -1.921875,-1.8125 z m -1.90625,6.578125 c -0.59375,-0.03125 -1.3125,-0.390625 -1.3125,-1.375 0,-1.203125 0.859375,-2.59375 2.34375,-2.734375 z m 1.28125,-4.109375 c 0.765625,0.046875 1.328125,0.5 1.328125,1.375 0,1.1875 -0.859375,2.609375 -2.34375,2.734375 z m 0,0"
             id="path142"
             style="fill:#3a46f5;fill-opacity:1" />
        </g>
      </g>
      <g
         fill="#000000"
         fill-opacity="1"
         id="g146"
         transform="translate(-149.196,-127.843)"
         style="fill:#3a46f5;fill-opacity:1">
        <g
           transform="translate(154.648,136.259)"
           id="g145"
           style="fill:#3a46f5;fill-opacity:1">
          <path
             d="m 2.328125,-4.4375 c 0,-0.1875 0,-0.1875 -0.203125,-0.1875 -0.453125,0.4375 -1.078125,0.4375 -1.359375,0.4375 v 0.25 c 0.15625,0 0.625,0 1,-0.1875 v 3.546875 c 0,0.234375 0,0.328125 -0.6875,0.328125 H 0.8125 V 0 c 0.125,0 0.984375,-0.03125 1.234375,-0.03125 0.21875,0 1.09375,0.03125 1.25,0.03125 V -0.25 H 3.03125 c -0.703125,0 -0.703125,-0.09375 -0.703125,-0.328125 z m 0,0"
             id="path144"
             style="fill:#3a46f5;fill-opacity:1" />
        </g>
      </g>
    </g>
    <g
       transform="matrix(0.683109,0,0,0.683109,144.49241,90.083368)"
       ns2:version="1.10.0"
       ns2:texconverter="pdflatex"
       ns2:pdfconverter="inkscape"
       ns2:text="$u_1$"
       ns2:preamble="/Users/daby/Library/Application Support/org.inkscape.Inkscape/config/inkscape/extensions/textext/default_packages.tex"
       ns2:scale="1.9363711850960938"
       ns2:alignment="middle center"
       ns2:stroke-to-path="0"
       id="g155"
       ns2:jacobian_sqrt="0.683109"
       style="display:inline;fill:#3a46f5;fill-opacity:1"
       inkscape:label="u1">
      <defs
         id="defs150" />
      <g
         fill="#000000"
         fill-opacity="1"
         id="g152"
         transform="translate(-149.009,-130.359)"
         style="fill:#3a46f5;fill-opacity:1">
        <g
           transform="translate(148.712,134.765)"
           id="g151"
           style="fill:#3a46f5;fill-opacity:1">
          <path
             d="M 3.484375,-0.5625 C 3.59375,-0.15625 3.953125,0.109375 4.375,0.109375 4.71875,0.109375 4.953125,-0.125 5.109375,-0.4375 5.28125,-0.796875 5.40625,-1.40625 5.40625,-1.421875 c 0,-0.109375 -0.078125,-0.109375 -0.109375,-0.109375 -0.109375,0 -0.109375,0.046875 -0.140625,0.1875 -0.140625,0.5625 -0.328125,1.234375 -0.75,1.234375 -0.203125,0 -0.3125,-0.125 -0.3125,-0.453125 0,-0.21875 0.125,-0.6875 0.203125,-1.046875 L 4.578125,-2.6875 C 4.609375,-2.828125 4.703125,-3.203125 4.75,-3.359375 4.796875,-3.59375 4.890625,-3.96875 4.890625,-4.03125 c 0,-0.171875 -0.140625,-0.265625 -0.28125,-0.265625 -0.046875,0 -0.3125,0.015625 -0.390625,0.34375 -0.1875,0.734375 -0.625,2.484375 -0.75,3 -0.015625,0.046875 -0.40625,0.84375 -1.140625,0.84375 -0.515625,0 -0.609375,-0.453125 -0.609375,-0.8125 0,-0.5625 0.28125,-1.34375 0.53125,-2.03125 0.125,-0.3125 0.171875,-0.453125 0.171875,-0.640625 0,-0.4375 -0.3125,-0.8125 -0.8125,-0.8125 -0.953125,0 -1.3125,1.453125 -1.3125,1.53125 0,0.109375 0.09375,0.109375 0.109375,0.109375 0.109375,0 0.109375,-0.03125 0.15625,-0.1875 0.25,-0.859375 0.640625,-1.234375 1.015625,-1.234375 0.09375,0 0.25,0.015625 0.25,0.328125 0,0.234375 -0.109375,0.53125 -0.171875,0.671875 -0.375,1 -0.578125,1.609375 -0.578125,2.09375 0,0.953125 0.6875,1.203125 1.21875,1.203125 0.65625,0 1.015625,-0.453125 1.1875,-0.671875 z m 0,0"
             id="path150"
             style="fill:#3a46f5;fill-opacity:1" />
        </g>
      </g>
      <g
         fill="#000000"
         fill-opacity="1"
         id="g154"
         transform="translate(-149.009,-130.359)"
         style="fill:#3a46f5;fill-opacity:1">
        <g
           transform="translate(154.415,136.259)"
           id="g153"
           style="fill:#3a46f5;fill-opacity:1">
          <path
             d="m 2.328125,-4.4375 c 0,-0.1875 0,-0.1875 -0.203125,-0.1875 -0.453125,0.4375 -1.078125,0.4375 -1.359375,0.4375 v 0.25 c 0.15625,0 0.625,0 1,-0.1875 v 3.546875 c 0,0.234375 0,0.328125 -0.6875,0.328125 H 0.8125 V 0 c 0.125,0 0.984375,-0.03125 1.234375,-0.03125 0.21875,0 1.09375,0.03125 1.25,0.03125 V -0.25 H 3.03125 c -0.703125,0 -0.703125,-0.09375 -0.703125,-0.328125 z m 0,0"
             id="path152"
             style="fill:#3a46f5;fill-opacity:1" />
        </g>
      </g>
    </g>
    <g
       transform="matrix(0.683109,0,0,0.683109,188.63898,96.393427)"
       ns2:version="1.10.0"
       ns2:texconverter="pdflatex"
       ns2:pdfconverter="inkscape"
       ns2:text="$\\phi_n$"
       ns2:preamble="/Users/daby/Library/Application Support/org.inkscape.Inkscape/config/inkscape/extensions/textext/default_packages.tex"
       ns2:scale="1.9363711850960938"
       ns2:alignment="middle center"
       ns2:stroke-to-path="0"
       id="g163"
       ns2:jacobian_sqrt="0.683109"
       inkscape:label="phin"
       style="fill:#3a46f5;fill-opacity:1">
      <defs
         id="defs158" />
      <g
         fill="#000000"
         fill-opacity="1"
         id="g160"
         transform="translate(-149.196,-127.843)"
         style="fill:#3a46f5;fill-opacity:1">
        <g
           transform="translate(148.712,134.765)"
           id="g159"
           style="fill:#3a46f5;fill-opacity:1">
          <path
             d="m 4.359375,-6.671875 c 0,-0.03125 0.03125,-0.140625 0.03125,-0.140625 0,-0.015625 0,-0.109375 -0.125,-0.109375 -0.09375,0 -0.109375,0.03125 -0.15625,0.203125 L 3.53125,-4.421875 c -1.578125,0.0625 -3.046875,1.375 -3.046875,2.734375 0,0.953125 0.703125,1.734375 1.921875,1.8125 C 2.328125,0.421875 2.25,0.75 2.171875,1.0625 c -0.125,0.46875 -0.21875,0.84375 -0.21875,0.875 0,0.09375 0.078125,0.109375 0.125,0.109375 C 2.125,2.046875 2.140625,2.03125 2.171875,2 2.1875,1.984375 2.25,1.75 2.28125,1.609375 L 2.65625,0.125 c 1.609375,-0.0625 3.0625,-1.40625 3.0625,-2.734375 0,-0.796875 -0.53125,-1.703125 -1.921875,-1.8125 z m -1.90625,6.578125 c -0.59375,-0.03125 -1.3125,-0.390625 -1.3125,-1.375 0,-1.203125 0.859375,-2.59375 2.34375,-2.734375 z m 1.28125,-4.109375 c 0.765625,0.046875 1.328125,0.5 1.328125,1.375 0,1.1875 -0.859375,2.609375 -2.34375,2.734375 z m 0,0"
             id="path158"
             style="fill:#3a46f5;fill-opacity:1" />
        </g>
      </g>
      <g
         fill="#000000"
         fill-opacity="1"
         id="g162"
         transform="translate(-149.196,-127.843)"
         style="fill:#3a46f5;fill-opacity:1">
        <g
           transform="translate(154.648,136.259)"
           id="g161"
           style="fill:#3a46f5;fill-opacity:1">
          <path
             d="m 0.84375,-0.4375 c -0.015625,0.09375 -0.0625,0.265625 -0.0625,0.28125 0,0.15625 0.125,0.21875 0.234375,0.21875 0.125,0 0.234375,-0.078125 0.28125,-0.140625 0.03125,-0.0625 0.078125,-0.296875 0.125,-0.4375 0.03125,-0.125 0.109375,-0.453125 0.140625,-0.625 0.046875,-0.15625 0.09375,-0.3125 0.125,-0.46875 0.078125,-0.28125 0.09375,-0.34375 0.296875,-0.625 C 2.171875,-2.515625 2.5,-2.875 3.03125,-2.875 c 0.390625,0 0.40625,0.359375 0.40625,0.484375 0,0.421875 -0.296875,1.1875 -0.40625,1.484375 -0.078125,0.203125 -0.109375,0.265625 -0.109375,0.375 0,0.375 0.296875,0.59375 0.65625,0.59375 0.703125,0 1,-0.953125 1,-1.0625 0,-0.09375 -0.078125,-0.09375 -0.109375,-0.09375 -0.09375,0 -0.09375,0.046875 -0.125,0.125 C 4.1875,-0.40625 3.875,-0.125 3.609375,-0.125 c -0.15625,0 -0.1875,-0.09375 -0.1875,-0.25 0,-0.15625 0.046875,-0.25 0.171875,-0.5625 0.078125,-0.21875 0.359375,-0.953125 0.359375,-1.34375 0,-0.671875 -0.53125,-0.796875 -0.90625,-0.796875 -0.578125,0 -0.96875,0.359375 -1.171875,0.640625 -0.046875,-0.484375 -0.453125,-0.640625 -0.75,-0.640625 -0.296875,0 -0.453125,0.21875 -0.546875,0.375 -0.15625,0.265625 -0.25,0.65625 -0.25,0.703125 0,0.078125 0.09375,0.078125 0.125,0.078125 0.09375,0 0.09375,-0.015625 0.140625,-0.203125 0.109375,-0.40625 0.25,-0.75 0.515625,-0.75 0.1875,0 0.234375,0.15625 0.234375,0.34375 0,0.125 -0.0625,0.390625 -0.125,0.578125 -0.046875,0.1875 -0.109375,0.46875 -0.140625,0.625 z m 0,0"
             id="path160"
             style="fill:#3a46f5;fill-opacity:1" />
        </g>
      </g>
    </g>
    <g
       transform="matrix(0.683109,0,0,0.683109,188.65486,110.5133)"
       ns2:version="1.10.0"
       ns2:texconverter="pdflatex"
       ns2:pdfconverter="inkscape"
       ns2:text="$u_n$"
       ns2:preamble="/Users/daby/Library/Application Support/org.inkscape.Inkscape/config/inkscape/extensions/textext/default_packages.tex"
       ns2:scale="1.9363711850960938"
       ns2:alignment="middle center"
       ns2:stroke-to-path="0"
       id="g171"
       ns2:jacobian_sqrt="0.683109"
       inkscape:label="un"
       style="fill:#3a46f5;fill-opacity:1">
      <defs
         id="defs166" />
      <g
         fill="#000000"
         fill-opacity="1"
         id="g168"
         transform="translate(-149.009,-130.359)"
         style="fill:#3a46f5;fill-opacity:1">
        <g
           transform="translate(148.712,134.765)"
           id="g167"
           style="fill:#3a46f5;fill-opacity:1">
          <path
             d="M 3.484375,-0.5625 C 3.59375,-0.15625 3.953125,0.109375 4.375,0.109375 4.71875,0.109375 4.953125,-0.125 5.109375,-0.4375 5.28125,-0.796875 5.40625,-1.40625 5.40625,-1.421875 c 0,-0.109375 -0.078125,-0.109375 -0.109375,-0.109375 -0.109375,0 -0.109375,0.046875 -0.140625,0.1875 -0.140625,0.5625 -0.328125,1.234375 -0.75,1.234375 -0.203125,0 -0.3125,-0.125 -0.3125,-0.453125 0,-0.21875 0.125,-0.6875 0.203125,-1.046875 L 4.578125,-2.6875 C 4.609375,-2.828125 4.703125,-3.203125 4.75,-3.359375 4.796875,-3.59375 4.890625,-3.96875 4.890625,-4.03125 c 0,-0.171875 -0.140625,-0.265625 -0.28125,-0.265625 -0.046875,0 -0.3125,0.015625 -0.390625,0.34375 -0.1875,0.734375 -0.625,2.484375 -0.75,3 -0.015625,0.046875 -0.40625,0.84375 -1.140625,0.84375 -0.515625,0 -0.609375,-0.453125 -0.609375,-0.8125 0,-0.5625 0.28125,-1.34375 0.53125,-2.03125 0.125,-0.3125 0.171875,-0.453125 0.171875,-0.640625 0,-0.4375 -0.3125,-0.8125 -0.8125,-0.8125 -0.953125,0 -1.3125,1.453125 -1.3125,1.53125 0,0.109375 0.09375,0.109375 0.109375,0.109375 0.109375,0 0.109375,-0.03125 0.15625,-0.1875 0.25,-0.859375 0.640625,-1.234375 1.015625,-1.234375 0.09375,0 0.25,0.015625 0.25,0.328125 0,0.234375 -0.109375,0.53125 -0.171875,0.671875 -0.375,1 -0.578125,1.609375 -0.578125,2.09375 0,0.953125 0.6875,1.203125 1.21875,1.203125 0.65625,0 1.015625,-0.453125 1.1875,-0.671875 z m 0,0"
             id="path166"
             style="fill:#3a46f5;fill-opacity:1" />
        </g>
      </g>
      <g
         fill="#000000"
         fill-opacity="1"
         id="g170"
         transform="translate(-149.009,-130.359)"
         style="fill:#3a46f5;fill-opacity:1">
        <g
           transform="translate(154.415,136.259)"
           id="g169"
           style="fill:#3a46f5;fill-opacity:1">
          <path
             d="m 0.84375,-0.4375 c -0.015625,0.09375 -0.0625,0.265625 -0.0625,0.28125 0,0.15625 0.125,0.21875 0.234375,0.21875 0.125,0 0.234375,-0.078125 0.28125,-0.140625 0.03125,-0.0625 0.078125,-0.296875 0.125,-0.4375 0.03125,-0.125 0.109375,-0.453125 0.140625,-0.625 0.046875,-0.15625 0.09375,-0.3125 0.125,-0.46875 0.078125,-0.28125 0.09375,-0.34375 0.296875,-0.625 C 2.171875,-2.515625 2.5,-2.875 3.03125,-2.875 c 0.390625,0 0.40625,0.359375 0.40625,0.484375 0,0.421875 -0.296875,1.1875 -0.40625,1.484375 -0.078125,0.203125 -0.109375,0.265625 -0.109375,0.375 0,0.375 0.296875,0.59375 0.65625,0.59375 0.703125,0 1,-0.953125 1,-1.0625 0,-0.09375 -0.078125,-0.09375 -0.109375,-0.09375 -0.09375,0 -0.09375,0.046875 -0.125,0.125 C 4.1875,-0.40625 3.875,-0.125 3.609375,-0.125 c -0.15625,0 -0.1875,-0.09375 -0.1875,-0.25 0,-0.15625 0.046875,-0.25 0.171875,-0.5625 0.078125,-0.21875 0.359375,-0.953125 0.359375,-1.34375 0,-0.671875 -0.53125,-0.796875 -0.90625,-0.796875 -0.578125,0 -0.96875,0.359375 -1.171875,0.640625 -0.046875,-0.484375 -0.453125,-0.640625 -0.75,-0.640625 -0.296875,0 -0.453125,0.21875 -0.546875,0.375 -0.15625,0.265625 -0.25,0.65625 -0.25,0.703125 0,0.078125 0.09375,0.078125 0.125,0.078125 0.09375,0 0.09375,-0.015625 0.140625,-0.203125 0.109375,-0.40625 0.25,-0.75 0.515625,-0.75 0.1875,0 0.234375,0.15625 0.234375,0.34375 0,0.125 -0.0625,0.390625 -0.125,0.578125 -0.046875,0.1875 -0.109375,0.46875 -0.140625,0.625 z m 0,0"
             id="path168"
             style="fill:#3a46f5;fill-opacity:1" />
        </g>
      </g>
    </g>
    <g
       transform="matrix(0.683109,0,0,0.683109,128.66731,19.3902)"
       ns2:version="1.10.0"
       ns2:texconverter="pdflatex"
       ns2:pdfconverter="inkscape"
       ns2:text="$X$"
       ns2:preamble="/Users/daby/Library/Application Support/org.inkscape.Inkscape/config/inkscape/extensions/textext/default_packages.tex"
       ns2:scale="1.9363711850960938"
       ns2:alignment="middle center"
       ns2:stroke-to-path="0"
       id="g4487"
       ns2:jacobian_sqrt="0.683109">
      <defs
         id="id-6ab5a643-f129-40b8-9201-05e7710c46c4" />
      <g
         fill="#000000"
         fill-opacity="1"
         id="id-36253ed0-6209-4c9d-8275-e01f3eb69ed5"
         transform="translate(-148.978,-127.953)">
        <g
           transform="translate(148.712,134.765)"
           id="g7070">
          <path
             d="M 4.828125,-4.09375 4,-6.078125 c -0.03125,-0.078125 -0.046875,-0.125 -0.046875,-0.125 0,-0.0625 0.15625,-0.25 0.578125,-0.296875 0.109375,-0.015625 0.203125,-0.015625 0.203125,-0.1875 0,-0.125 -0.125,-0.125 -0.15625,-0.125 -0.40625,0 -0.828125,0.03125 -1.25,0.03125 -0.25,0 -0.859375,-0.03125 -1.109375,-0.03125 -0.0625,0 -0.1875,0 -0.1875,0.203125 C 2.03125,-6.5 2.140625,-6.5 2.265625,-6.5 c 0.59375,0 0.65625,0.09375 0.75,0.3125 l 1.171875,2.78125 -2.109375,2.265625 -0.125,0.109375 C 1.46875,-0.5 1,-0.34375 0.484375,-0.3125 c -0.125,0.015625 -0.21875,0.015625 -0.21875,0.203125 0,0.015625 0,0.109375 0.140625,0.109375 0.296875,0 0.625,-0.03125 0.921875,-0.03125 C 1.703125,-0.03125 2.09375,0 2.453125,0 2.515625,0 2.625,0 2.625,-0.203125 2.625,-0.296875 2.53125,-0.3125 2.515625,-0.3125 c -0.09375,0 -0.40625,-0.03125 -0.40625,-0.3125 0,-0.15625 0.15625,-0.3125 0.265625,-0.4375 L 3.40625,-2.140625 4.296875,-3.125 l 1,2.390625 c 0.046875,0.109375 0.0625,0.109375 0.0625,0.140625 0,0.078125 -0.203125,0.25 -0.578125,0.28125 C 4.671875,-0.296875 4.578125,-0.296875 4.578125,-0.125 4.578125,0 4.6875,0 4.71875,0 5,0 5.703125,-0.03125 5.984375,-0.03125 6.234375,-0.03125 6.84375,0 7.09375,0 c 0.0625,0 0.1875,0 0.1875,-0.1875 0,-0.125 -0.109375,-0.125 -0.1875,-0.125 -0.65625,0 -0.6875,-0.03125 -0.859375,-0.4375 C 5.859375,-1.671875 5.1875,-3.234375 4.953125,-3.828125 5.625,-4.53125 6.671875,-5.71875 7,-5.984375 7.28125,-6.234375 7.671875,-6.46875 8.265625,-6.5 c 0.125,-0.015625 0.21875,-0.015625 0.21875,-0.203125 0,0 0,-0.109375 -0.125,-0.109375 -0.296875,0 -0.640625,0.03125 -0.9375,0.03125 -0.375,0 -0.75,-0.03125 -1.109375,-0.03125 -0.0625,0 -0.1875,0 -0.1875,0.203125 0,0.0625 0.046875,0.09375 0.109375,0.109375 0.09375,0.015625 0.40625,0.03125 0.40625,0.3125 0,0.140625 -0.109375,0.265625 -0.1875,0.359375 z m 0,0"
             id="id-5d49b093-6cde-4d7e-b6c7-a3f653cb778e" />
        </g>
      </g>
    </g>
    <g
       transform="matrix(0.683109,0,0,0.683109,86.3617,94.717)"
       ns2:version="1.10.0"
       ns2:texconverter="pdflatex"
       ns2:pdfconverter="inkscape"
       ns2:text="$x_1$"
       ns2:preamble="/Users/daby/Library/Application Support/org.inkscape.Inkscape/config/inkscape/extensions/textext/default_packages.tex"
       ns2:scale="1.9363711850960938"
       ns2:alignment="middle center"
       ns2:stroke-to-path="0"
       id="g186"
       ns2:jacobian_sqrt="0.683109"
       style="fill:#01426a;fill-opacity:1">
      <defs
         id="id-77cfdbad-5fa8-4495-bac0-2899d566a18f" />
      <g
         fill="#000000"
         fill-opacity="1"
         id="id-fca319a6-d164-40ea-8409-23a3533220a0"
         transform="translate(-149.009,-130.359)"
         style="fill:#01426a;fill-opacity:1">
        <g
           transform="translate(148.712,134.765)"
           id="g3716"
           style="fill:#01426a;fill-opacity:1">
          <path
             d="M 3.328125,-3.015625 C 3.390625,-3.265625 3.625,-4.1875 4.3125,-4.1875 c 0.046875,0 0.296875,0 0.5,0.125 C 4.53125,-4 4.34375,-3.765625 4.34375,-3.515625 c 0,0.15625 0.109375,0.34375 0.375,0.34375 0.21875,0 0.53125,-0.171875 0.53125,-0.578125 0,-0.515625 -0.578125,-0.65625 -0.921875,-0.65625 -0.578125,0 -0.921875,0.53125 -1.046875,0.75 -0.25,-0.65625 -0.78125,-0.75 -1.078125,-0.75 -1.03125,0 -1.609375,1.28125 -1.609375,1.53125 0,0.109375 0.109375,0.109375 0.125,0.109375 0.078125,0 0.109375,-0.03125 0.125,-0.109375 0.34375,-1.0625 1,-1.3125 1.34375,-1.3125 0.1875,0 0.53125,0.09375 0.53125,0.671875 0,0.3125 -0.171875,0.96875 -0.53125,2.375 -0.15625,0.609375 -0.515625,1.03125 -0.953125,1.03125 -0.0625,0 -0.28125,0 -0.5,-0.125 0.25,-0.0625 0.46875,-0.265625 0.46875,-0.546875 0,-0.265625 -0.21875,-0.34375 -0.359375,-0.34375 -0.3125,0 -0.546875,0.25 -0.546875,0.578125 0,0.453125 0.484375,0.65625 0.921875,0.65625 0.671875,0 1.03125,-0.703125 1.046875,-0.75 0.125,0.359375 0.484375,0.75 1.078125,0.75 1.03125,0 1.59375,-1.28125 1.59375,-1.53125 0,-0.109375 -0.078125,-0.109375 -0.109375,-0.109375 -0.09375,0 -0.109375,0.046875 -0.140625,0.109375 -0.328125,1.078125 -1,1.3125 -1.3125,1.3125 -0.390625,0 -0.546875,-0.3125 -0.546875,-0.65625 0,-0.21875 0.046875,-0.4375 0.15625,-0.875 z m 0,0"
             id="id-43a27290-7d83-40df-b08b-360667318793"
             style="fill:#01426a;fill-opacity:1" />
        </g>
      </g>
      <g
         fill="#000000"
         fill-opacity="1"
         id="id-545b9756-0a5b-414e-934a-6d8ec21b0e32"
         transform="translate(-149.009,-130.359)"
         style="fill:#01426a;fill-opacity:1">
        <g
           transform="translate(154.406,136.259)"
           id="g4586"
           style="fill:#01426a;fill-opacity:1">
          <path
             d="m 2.328125,-4.4375 c 0,-0.1875 0,-0.1875 -0.203125,-0.1875 -0.453125,0.4375 -1.078125,0.4375 -1.359375,0.4375 v 0.25 c 0.15625,0 0.625,0 1,-0.1875 v 3.546875 c 0,0.234375 0,0.328125 -0.6875,0.328125 H 0.8125 V 0 c 0.125,0 0.984375,-0.03125 1.234375,-0.03125 0.21875,0 1.09375,0.03125 1.25,0.03125 V -0.25 H 3.03125 c -0.703125,0 -0.703125,-0.09375 -0.703125,-0.328125 z m 0,0"
             id="id-874614c3-d4e0-40bd-8c77-bd589a64eb13"
             style="fill:#01426a;fill-opacity:1" />
        </g>
      </g>
    </g>
    <g
       transform="matrix(0.683109,0,0,0.683109,127.807,143.23)"
       ns2:version="1.10.0"
       ns2:texconverter="pdflatex"
       ns2:pdfconverter="inkscape"
       ns2:text="$x_2$"
       ns2:preamble="/Users/daby/Library/Application Support/org.inkscape.Inkscape/config/inkscape/extensions/textext/default_packages.tex"
       ns2:scale="1.9363711850960938"
       ns2:alignment="middle center"
       ns2:stroke-to-path="0"
       id="g191"
       ns2:jacobian_sqrt="0.683109"
       style="fill:#005776;fill-opacity:1">
      <defs
         id="id-4b1f8b52-6a73-4aaa-bce8-594bfcc2de02" />
      <g
         fill="#000000"
         fill-opacity="1"
         id="id-ad86394c-011e-4332-8b2b-9869339e3519"
         transform="translate(-149.009,-130.359)"
         style="fill:#005776;fill-opacity:1">
        <g
           transform="translate(148.712,134.765)"
           id="g3386"
           style="fill:#005776;fill-opacity:1">
          <path
             d="M 3.328125,-3.015625 C 3.390625,-3.265625 3.625,-4.1875 4.3125,-4.1875 c 0.046875,0 0.296875,0 0.5,0.125 C 4.53125,-4 4.34375,-3.765625 4.34375,-3.515625 c 0,0.15625 0.109375,0.34375 0.375,0.34375 0.21875,0 0.53125,-0.171875 0.53125,-0.578125 0,-0.515625 -0.578125,-0.65625 -0.921875,-0.65625 -0.578125,0 -0.921875,0.53125 -1.046875,0.75 -0.25,-0.65625 -0.78125,-0.75 -1.078125,-0.75 -1.03125,0 -1.609375,1.28125 -1.609375,1.53125 0,0.109375 0.109375,0.109375 0.125,0.109375 0.078125,0 0.109375,-0.03125 0.125,-0.109375 0.34375,-1.0625 1,-1.3125 1.34375,-1.3125 0.1875,0 0.53125,0.09375 0.53125,0.671875 0,0.3125 -0.171875,0.96875 -0.53125,2.375 -0.15625,0.609375 -0.515625,1.03125 -0.953125,1.03125 -0.0625,0 -0.28125,0 -0.5,-0.125 0.25,-0.0625 0.46875,-0.265625 0.46875,-0.546875 0,-0.265625 -0.21875,-0.34375 -0.359375,-0.34375 -0.3125,0 -0.546875,0.25 -0.546875,0.578125 0,0.453125 0.484375,0.65625 0.921875,0.65625 0.671875,0 1.03125,-0.703125 1.046875,-0.75 0.125,0.359375 0.484375,0.75 1.078125,0.75 1.03125,0 1.59375,-1.28125 1.59375,-1.53125 0,-0.109375 -0.078125,-0.109375 -0.109375,-0.109375 -0.09375,0 -0.109375,0.046875 -0.140625,0.109375 -0.328125,1.078125 -1,1.3125 -1.3125,1.3125 -0.390625,0 -0.546875,-0.3125 -0.546875,-0.65625 0,-0.21875 0.046875,-0.4375 0.15625,-0.875 z m 0,0"
             id="id-7eac987d-cecf-4e05-9906-5022dafa01ee"
             style="fill:#3a46f5;fill-opacity:1" />
        </g>
      </g>
      <g
         fill="#000000"
         fill-opacity="1"
         id="id-35b463dd-9a75-477e-9b23-4fb24349abf3"
         transform="translate(-149.009,-130.359)"
         style="fill:#005776;fill-opacity:1">
        <g
           transform="translate(154.406,136.259)"
           id="g3590"
           style="fill:#005776;fill-opacity:1">
          <path
             d="M 3.515625,-1.265625 H 3.28125 c -0.015625,0.15625 -0.09375,0.5625 -0.1875,0.625 C 3.046875,-0.59375 2.515625,-0.59375 2.40625,-0.59375 H 1.125 c 0.734375,-0.640625 0.984375,-0.84375 1.390625,-1.171875 0.515625,-0.40625 1,-0.84375 1,-1.5 0,-0.84375 -0.734375,-1.359375 -1.625,-1.359375 -0.859375,0 -1.453125,0.609375 -1.453125,1.25 0,0.34375 0.296875,0.390625 0.375,0.390625 0.15625,0 0.359375,-0.125 0.359375,-0.375 0,-0.125 -0.046875,-0.375 -0.40625,-0.375 C 0.984375,-4.21875 1.453125,-4.375 1.78125,-4.375 c 0.703125,0 1.0625,0.546875 1.0625,1.109375 0,0.609375 -0.4375,1.078125 -0.65625,1.328125 L 0.515625,-0.265625 C 0.4375,-0.203125 0.4375,-0.1875 0.4375,0 h 2.875 z m 0,0"
             id="id-4f92d13f-77a9-4994-8c01-4a807dbacce4"
             style="fill:#3a46f5;fill-opacity:1" />
        </g>
      </g>
    </g>
    <g
       transform="matrix(0.683109,0,0,0.683109,225.228,90.5962)"
       ns2:version="1.10.0"
       ns2:texconverter="pdflatex"
       ns2:pdfconverter="inkscape"
       ns2:text="$x_n$"
       ns2:preamble="/Users/daby/Library/Application Support/org.inkscape.Inkscape/config/inkscape/extensions/textext/default_packages.tex"
       ns2:scale="1.9363711850960938"
       ns2:alignment="middle center"
       ns2:stroke-to-path="0"
       id="g196"
       ns2:jacobian_sqrt="0.683109"
       style="fill:#3a46f5;fill-opacity:1;stroke:none;stroke-opacity:1">
      <defs
         id="id-b09f8fa9-151d-4706-9c95-63f3a68ab54b" />
      <g
         fill="#000000"
         fill-opacity="1"
         id="id-005cfb5f-98fc-482f-8984-306c5a55ec9c"
         transform="translate(-149.009,-130.359)"
         style="fill:#3a46f5;fill-opacity:1;stroke:none;stroke-opacity:1">
        <g
           transform="translate(148.712,134.765)"
           id="g8788"
           style="fill:#3a46f5;fill-opacity:1;stroke:none;stroke-opacity:1">
          <path
             d="M 3.328125,-3.015625 C 3.390625,-3.265625 3.625,-4.1875 4.3125,-4.1875 c 0.046875,0 0.296875,0 0.5,0.125 C 4.53125,-4 4.34375,-3.765625 4.34375,-3.515625 c 0,0.15625 0.109375,0.34375 0.375,0.34375 0.21875,0 0.53125,-0.171875 0.53125,-0.578125 0,-0.515625 -0.578125,-0.65625 -0.921875,-0.65625 -0.578125,0 -0.921875,0.53125 -1.046875,0.75 -0.25,-0.65625 -0.78125,-0.75 -1.078125,-0.75 -1.03125,0 -1.609375,1.28125 -1.609375,1.53125 0,0.109375 0.109375,0.109375 0.125,0.109375 0.078125,0 0.109375,-0.03125 0.125,-0.109375 0.34375,-1.0625 1,-1.3125 1.34375,-1.3125 0.1875,0 0.53125,0.09375 0.53125,0.671875 0,0.3125 -0.171875,0.96875 -0.53125,2.375 -0.15625,0.609375 -0.515625,1.03125 -0.953125,1.03125 -0.0625,0 -0.28125,0 -0.5,-0.125 0.25,-0.0625 0.46875,-0.265625 0.46875,-0.546875 0,-0.265625 -0.21875,-0.34375 -0.359375,-0.34375 -0.3125,0 -0.546875,0.25 -0.546875,0.578125 0,0.453125 0.484375,0.65625 0.921875,0.65625 0.671875,0 1.03125,-0.703125 1.046875,-0.75 0.125,0.359375 0.484375,0.75 1.078125,0.75 1.03125,0 1.59375,-1.28125 1.59375,-1.53125 0,-0.109375 -0.078125,-0.109375 -0.109375,-0.109375 -0.09375,0 -0.109375,0.046875 -0.140625,0.109375 -0.328125,1.078125 -1,1.3125 -1.3125,1.3125 -0.390625,0 -0.546875,-0.3125 -0.546875,-0.65625 0,-0.21875 0.046875,-0.4375 0.15625,-0.875 z m 0,0"
             id="id-9122c38e-5c49-4901-a60c-1f0f022adf13"
             style="fill:#3a46f5;fill-opacity:1;stroke:none;stroke-opacity:1" />
        </g>
      </g>
      <g
         fill="#000000"
         fill-opacity="1"
         id="id-82f878e9-fee1-4624-b331-dbbeac45773d"
         transform="translate(-149.009,-130.359)"
         style="fill:#3a46f5;fill-opacity:1;stroke:none;stroke-opacity:1">
        <g
           transform="translate(154.406,136.259)"
           id="g1891"
           style="fill:#3a46f5;fill-opacity:1;stroke:none;stroke-opacity:1">
          <path
             d="m 0.84375,-0.4375 c -0.015625,0.09375 -0.0625,0.265625 -0.0625,0.28125 0,0.15625 0.125,0.21875 0.234375,0.21875 0.125,0 0.234375,-0.078125 0.28125,-0.140625 0.03125,-0.0625 0.078125,-0.296875 0.125,-0.4375 0.03125,-0.125 0.109375,-0.453125 0.140625,-0.625 0.046875,-0.15625 0.09375,-0.3125 0.125,-0.46875 0.078125,-0.28125 0.09375,-0.34375 0.296875,-0.625 C 2.171875,-2.515625 2.5,-2.875 3.03125,-2.875 c 0.390625,0 0.40625,0.359375 0.40625,0.484375 0,0.421875 -0.296875,1.1875 -0.40625,1.484375 -0.078125,0.203125 -0.109375,0.265625 -0.109375,0.375 0,0.375 0.296875,0.59375 0.65625,0.59375 0.703125,0 1,-0.953125 1,-1.0625 0,-0.09375 -0.078125,-0.09375 -0.109375,-0.09375 -0.09375,0 -0.09375,0.046875 -0.125,0.125 C 4.1875,-0.40625 3.875,-0.125 3.609375,-0.125 c -0.15625,0 -0.1875,-0.09375 -0.1875,-0.25 0,-0.15625 0.046875,-0.25 0.171875,-0.5625 0.078125,-0.21875 0.359375,-0.953125 0.359375,-1.34375 0,-0.671875 -0.53125,-0.796875 -0.90625,-0.796875 -0.578125,0 -0.96875,0.359375 -1.171875,0.640625 -0.046875,-0.484375 -0.453125,-0.640625 -0.75,-0.640625 -0.296875,0 -0.453125,0.21875 -0.546875,0.375 -0.15625,0.265625 -0.25,0.65625 -0.25,0.703125 0,0.078125 0.09375,0.078125 0.125,0.078125 0.09375,0 0.09375,-0.015625 0.140625,-0.203125 0.109375,-0.40625 0.25,-0.75 0.515625,-0.75 0.1875,0 0.234375,0.15625 0.234375,0.34375 0,0.125 -0.0625,0.390625 -0.125,0.578125 -0.046875,0.1875 -0.109375,0.46875 -0.140625,0.625 z m 0,0"
             id="id-94ea8726-db00-42c0-aa5f-cf9a7f2d9eb8"
             style="fill:#3a46f5;fill-opacity:1;stroke:none;stroke-opacity:1" />
        </g>
      </g>
    </g>
    <g
       transform="matrix(0.683109,0,0,0.683109,162.941,99.2702)"
       ns2:version="1.10.0"
       ns2:texconverter="pdflatex"
       ns2:pdfconverter="inkscape"
       ns2:text="$\\overline{x}$"
       ns2:preamble="/Users/daby/Library/Application Support/org.inkscape.Inkscape/config/inkscape/extensions/textext/default_packages.tex"
       ns2:scale="1.9363711850960938"
       ns2:alignment="middle center"
       ns2:stroke-to-path="0"
       id="g201"
       ns2:jacobian_sqrt="0.683109"
       style="fill:#a92021;fill-opacity:1">
      <defs
         id="id-d9997bab-de8c-4b71-9a8e-635920c8ae0e" />
      <path
         fill="none"
         stroke-width="0.398"
         stroke-linecap="butt"
         stroke-linejoin="miter"
         stroke="#000000"
         stroke-opacity="1"
         stroke-miterlimit="10"
         d="M 0,0.199 H 5.6953125"
         id="id-7c0b1ea4-8f62-4386-9f2b-0b1a4ad0dd20"
         style="fill:#a92021;fill-opacity:1" />
      <g
         fill="#000000"
         fill-opacity="1"
         id="id-9a4a2426-c856-4935-ada2-a64e0c16a187"
         transform="translate(-148.711,-128.879)"
         style="fill:#a92021;fill-opacity:1">
        <g
           transform="translate(148.712,134.765)"
           id="g1601"
           style="fill:#a92021;fill-opacity:1">
          <path
             d="M 3.328125,-3.015625 C 3.390625,-3.265625 3.625,-4.1875 4.3125,-4.1875 c 0.046875,0 0.296875,0 0.5,0.125 C 4.53125,-4 4.34375,-3.765625 4.34375,-3.515625 c 0,0.15625 0.109375,0.34375 0.375,0.34375 0.21875,0 0.53125,-0.171875 0.53125,-0.578125 0,-0.515625 -0.578125,-0.65625 -0.921875,-0.65625 -0.578125,0 -0.921875,0.53125 -1.046875,0.75 -0.25,-0.65625 -0.78125,-0.75 -1.078125,-0.75 -1.03125,0 -1.609375,1.28125 -1.609375,1.53125 0,0.109375 0.109375,0.109375 0.125,0.109375 0.078125,0 0.109375,-0.03125 0.125,-0.109375 0.34375,-1.0625 1,-1.3125 1.34375,-1.3125 0.1875,0 0.53125,0.09375 0.53125,0.671875 0,0.3125 -0.171875,0.96875 -0.53125,2.375 -0.15625,0.609375 -0.515625,1.03125 -0.953125,1.03125 -0.0625,0 -0.28125,0 -0.5,-0.125 0.25,-0.0625 0.46875,-0.265625 0.46875,-0.546875 0,-0.265625 -0.21875,-0.34375 -0.359375,-0.34375 -0.3125,0 -0.546875,0.25 -0.546875,0.578125 0,0.453125 0.484375,0.65625 0.921875,0.65625 0.671875,0 1.03125,-0.703125 1.046875,-0.75 0.125,0.359375 0.484375,0.75 1.078125,0.75 1.03125,0 1.59375,-1.28125 1.59375,-1.53125 0,-0.109375 -0.078125,-0.109375 -0.109375,-0.109375 -0.09375,0 -0.109375,0.046875 -0.140625,0.109375 -0.328125,1.078125 -1,1.3125 -1.3125,1.3125 -0.390625,0 -0.546875,-0.3125 -0.546875,-0.65625 0,-0.21875 0.046875,-0.4375 0.15625,-0.875 z m 0,0"
             id="id-42210a7b-d23b-4914-9c02-70110347ffde"
             style="fill:#a92021;fill-opacity:1" />
        </g>
      </g>
    </g>
  </g>
  <path
     style="fill:none;fill-opacity:1;stroke:#3a46f5;stroke-width:0.2;stroke-dasharray:none;stroke-dashoffset:0;stroke-opacity:1"
     d="m 80.588491,67.390233 5.98823,0.03802"
     id="path171" />
  <path
     style="fill:none;fill-opacity:1;stroke:#3a46f5;stroke-width:0.2;stroke-dasharray:none;stroke-dashoffset:0;stroke-opacity:1"
     d="m 80.179891,81.553861 5.98823,0.03802"
     id="path172" />
  <path
     style="fill:none;fill-opacity:1;stroke:#3a46f5;stroke-width:0.2;stroke-dasharray:none;stroke-dashoffset:0;stroke-opacity:1"
     d="m 90.239951,105.53944 5.98823,0.038"
     id="path173" />
  <path
     style="fill:none;fill-opacity:1;stroke:#3a46f5;stroke-width:0.2;stroke-dasharray:none;stroke-dashoffset:0;stroke-opacity:1"
     d="m 102.63819,105.53944 5.98823,0.038"
     id="path174" />
  <path
     style="fill:none;fill-opacity:1;stroke:#3a46f5;stroke-width:0.2;stroke-dasharray:none;stroke-dashoffset:0;stroke-opacity:1"
     d="m 124.7576,87.764139 5.98823,0.038"
     id="path175" />
  <path
     style="fill:none;fill-opacity:1;stroke:#3a46f5;stroke-width:0.2;stroke-dasharray:none;stroke-dashoffset:0;stroke-opacity:1"
     d="m 124.7576,101.80275 5.98823,0.038"
     id="path176" />
</svg>
